<?xml version="1.0" encoding="UTF-8"?>
<!DOCTYPE svg PUBLIC "-//W3C//DTD SVG 1.1//EN" "http://www.w3.org/Graphics/SVG/1.1/DTD/svg11.dtd">
<svg xmlns="http://www.w3.org/2000/svg" version="1.1" width="4390px" height="4390px" style="shape-rendering:geometricPrecision; text-rendering:geometricPrecision; image-rendering:optimizeQuality; fill-rule:evenodd; clip-rule:evenodd" xmlns:xlink="http://www.w3.org/1999/xlink">
<g><path style="opacity:0.987" fill="#fefefe" d="M 1249.5,684.5 C 1877.17,684.5 2504.83,684.5 3132.5,684.5C 3132.24,866.889 3132.91,1049.22 3134.5,1231.5C 3187.54,1231.17 3240.54,1231.5 3293.5,1232.5C 3294.83,1577.83 3294.83,1923.17 3293.5,2268.5C 3243.04,2269.48 3192.71,2269.82 3142.5,2269.5C 3142.33,2303.17 3142.5,2336.83 3143,2370.5C 3145.01,2412.52 3147.01,2454.52 3149,2496.5C 3150.74,2565.01 3151.91,2633.51 3152.5,2702C 3151.75,2704.17 3150.91,2706.34 3150,2708.5C 3149.81,2736.57 3148.81,2764.57 3147,2792.5C 3146.14,2794.09 3145.47,2795.75 3145,2797.5C 3139.24,2858.76 3128.58,2919.1 3113,2978.5C 3110,2987.2 3107,2995.87 3104,3004.5C 3097.72,3030.67 3089.05,3056 3078,3080.5C 3071.88,3097.34 3065.54,3114.01 3059,3130.5C 3045.9,3154.37 3033.57,3178.7 3022,3203.5C 3016.18,3210.5 3011.35,3218.17 3007.5,3226.5C 3006.76,3227.29 3005.92,3227.95 3005,3228.5C 2999.25,3239.66 2993.25,3250.66 2987,3261.5C 2978.44,3270.74 2971.44,3281.07 2966,3292.5C 2964.33,3293.83 2962.67,3295.17 2961,3296.5C 2956.42,3303.33 2952.08,3310.33 2948,3317.5C 2944.18,3320.32 2941.51,3323.99 2940,3328.5C 2934.87,3331.96 2930.87,3336.29 2928,3341.5C 2922.53,3346.12 2918.03,3351.46 2914.5,3357.5C 2909.04,3361.45 2904.88,3366.45 2902,3372.5C 2882.92,3390.74 2864.76,3409.74 2847.5,3429.5C 2845.33,3430.95 2843,3432.11 2840.5,3433C 2834.89,3439.61 2828.89,3445.94 2822.5,3452C 2820.91,3452.86 2819.25,3453.53 2817.5,3454C 2798.82,3473.02 2778.15,3489.69 2755.5,3504C 2750.44,3509.39 2745.11,3514.39 2739.5,3519C 2732.24,3522.97 2724.91,3526.97 2717.5,3531C 2694.56,3547.97 2670.23,3562.64 2644.5,3575C 2636.37,3579.82 2628.37,3584.82 2620.5,3590C 2618.5,3590.33 2616.5,3590.67 2614.5,3591C 2583.89,3606.87 2552.23,3620.2 2519.5,3631C 2513.71,3633.48 2508.05,3636.15 2502.5,3639C 2440.66,3660.29 2377.33,3675.29 2312.5,3684C 2304.99,3683.93 2297.66,3684.93 2290.5,3687C 2272.91,3688.82 2255.25,3689.82 2237.5,3690C 2235.91,3690.86 2234.25,3691.53 2232.5,3692C 2199.83,3692.67 2167.17,3692.67 2134.5,3692C 2132.5,3691.33 2130.5,3690.67 2128.5,3690C 2060.74,3687.38 1994.57,3676.88 1930,3658.5C 1820.36,3628.09 1719.52,3579.59 1627.5,3513C 1625.75,3512.53 1624.09,3511.86 1622.5,3511C 1613.07,3501.91 1602.74,3493.91 1591.5,3487C 1583.02,3478.61 1574.02,3470.95 1564.5,3464C 1558.38,3456.88 1551.38,3450.88 1543.5,3446C 1522.75,3425.25 1501.91,3404.41 1481,3383.5C 1475.14,3374.3 1467.81,3366.3 1459,3359.5C 1457.18,3354.67 1454.18,3350.67 1450,3347.5C 1447.06,3341.9 1443.06,3337.23 1438,3333.5C 1437.14,3331.91 1436.47,3330.25 1436,3328.5C 1431.19,3325.69 1427.86,3321.69 1426,3316.5C 1419.71,3308.51 1413.38,3300.51 1407,3292.5C 1405.4,3288.58 1403.4,3284.91 1401,3281.5C 1390.94,3269.71 1382.1,3257.04 1374.5,3243.5C 1373.24,3242.62 1372.07,3241.62 1371,3240.5C 1364.93,3229.37 1358.6,3218.37 1352,3207.5C 1349.7,3198.57 1346.04,3190.24 1341,3182.5C 1335.92,3168.09 1329.92,3154.09 1323,3140.5C 1322.08,3135.07 1320.75,3129.74 1319,3124.5C 1303.47,3085.98 1290.47,3046.65 1280,3006.5C 1277.66,3000.49 1275.33,2994.49 1273,2988.5C 1266.19,2964.8 1260.53,2940.8 1256,2916.5C 1253.98,2914.17 1253.48,2911.67 1254.5,2909C 1253.81,2906.46 1252.98,2903.96 1252,2901.5C 1250.66,2889.8 1249,2878.13 1247,2866.5C 1246.17,2668.6 1246.33,2470.76 1247.5,2273C 1246.86,2270.87 1245.53,2269.37 1243.5,2268.5C 1198.96,2269.42 1151.29,2269.42 1100.5,2268.5C 1099.83,1924.13 1099.17,1579.79 1098.5,1235.5C 1099.04,1234.25 1099.71,1233.09 1100.5,1232C 1149.17,1231.5 1197.83,1231.33 1246.5,1231.5C 1246.33,1100.17 1246.5,968.833 1247,837.5C 1247.67,835.5 1248.33,833.5 1249,831.5C 1249.49,782.293 1249.65,733.293 1249.5,684.5 Z M 1359.5,739.5 C 1371.09,738.535 1382.09,740.535 1392.5,745.5C 1395.3,744.531 1397.3,742.698 1398.5,740C 1399.17,739.333 1399.83,739.333 1400.5,740C 1402.48,749.691 1403.48,759.525 1403.5,769.5C 1401.61,769.703 1400.11,769.037 1399,767.5C 1395.42,759.536 1390.26,752.703 1383.5,747C 1369.17,741.964 1359,746.464 1353,760.5C 1347.26,778.174 1349.26,794.841 1359,810.5C 1367.82,819.829 1377.99,821.662 1389.5,816C 1394.68,811.991 1399.34,807.491 1403.5,802.5C 1404.6,805.359 1404.1,808.026 1402,810.5C 1396.56,817.616 1389.73,822.783 1381.5,826C 1348.48,830.801 1330.81,816.634 1328.5,783.5C 1329.52,762.073 1339.86,747.407 1359.5,739.5 Z M 1807.5,743.5 C 1820.34,742.175 1833.34,742.175 1846.5,743.5C 1841.46,743.378 1838.3,745.711 1837,750.5C 1836.17,760.184 1836.33,769.851 1837.5,779.5C 1846.98,779.203 1856.32,779.536 1865.5,780.5C 1867.06,779.926 1868.56,779.26 1870,778.5C 1870.67,768.833 1870.67,759.167 1870,749.5C 1869.69,748.234 1869.19,747.067 1868.5,746C 1865.04,745.209 1861.71,744.209 1858.5,743C 1872.83,742.333 1887.17,742.333 1901.5,743C 1899.38,744.194 1897.04,744.86 1894.5,745C 1892.51,745.574 1891.01,746.741 1890,748.5C 1888.24,771.851 1888.24,795.184 1890,818.5C 1890.5,819.667 1891.33,820.5 1892.5,821C 1895.19,821.771 1897.86,822.604 1900.5,823.5C 1886.5,824.833 1872.5,824.833 1858.5,823.5C 1862.76,822.703 1866.26,820.703 1869,817.5C 1870.44,806.869 1870.78,796.202 1870,785.5C 1868.81,784.57 1867.47,783.903 1866,783.5C 1856.5,783.959 1847,784.292 1837.5,784.5C 1836.33,795.819 1836.17,807.152 1837,818.5C 1839.66,820.913 1842.83,822.413 1846.5,823C 1846.17,823.333 1845.83,823.667 1845.5,824C 1832.49,824.833 1819.49,824.666 1806.5,823.5C 1808.87,822.209 1811.37,821.209 1814,820.5C 1815.48,819.556 1816.48,818.223 1817,816.5C 1818.88,793.489 1818.88,770.489 1817,747.5C 1814.22,745.244 1811.06,743.911 1807.5,743.5 Z M 2228.5,743.5 C 2252.66,742.502 2276.99,742.169 2301.5,742.5C 2302.74,748.784 2303.74,755.117 2304.5,761.5C 2300.81,759.322 2297.47,756.489 2294.5,753C 2285.11,748.097 2275.11,746.097 2264.5,747C 2261.9,747.935 2260.4,749.768 2260,752.5C 2259.5,761.494 2259.33,770.494 2259.5,779.5C 2264.68,779.728 2269.68,778.895 2274.5,777C 2276.85,772.94 2279.02,768.773 2281,764.5C 2284.61,776.275 2284.28,787.942 2280,799.5C 2278.17,796.397 2276.84,793.063 2276,789.5C 2271.16,785.943 2265.66,784.276 2259.5,784.5C 2259.07,795.578 2259.57,806.578 2261,817.5C 2261.47,818.931 2262.3,820.097 2263.5,821C 2267.11,821.945 2270.78,822.612 2274.5,823C 2267.16,824.153 2259.66,824.653 2252,824.5C 2244.34,824.653 2236.84,824.153 2229.5,823C 2232.17,822.333 2234.83,821.667 2237.5,821C 2238.7,820.097 2239.53,818.931 2240,817.5C 2242.47,798.248 2243.14,778.915 2242,759.5C 2241.47,755.057 2240.47,750.723 2239,746.5C 2235.59,745.128 2232.09,744.128 2228.5,743.5 Z M 1413.5,759.5 C 1431.5,759.333 1449.5,759.5 1467.5,760C 1468,760.5 1468.5,761 1469,761.5C 1469.43,766.59 1470.26,771.59 1471.5,776.5C 1468.41,776.374 1466.57,774.707 1466,771.5C 1458.38,762.762 1449.05,760.095 1438,763.5C 1436.43,771.755 1436.09,780.089 1437,788.5C 1445.78,790.254 1450.94,786.587 1452.5,777.5C 1453.98,777.238 1455.31,777.571 1456.5,778.5C 1455.17,786.5 1455.17,794.5 1456.5,802.5C 1455.97,804.101 1454.97,804.601 1453.5,804C 1451.17,796.406 1446,792.239 1438,791.5C 1436.37,800.003 1436.03,808.67 1437,817.5C 1437.37,818.416 1437.87,819.25 1438.5,820C 1449.44,823.454 1459.44,821.62 1468.5,814.5C 1470.09,811.659 1471.92,808.993 1474,806.5C 1474.5,807 1475,807.5 1475.5,808C 1474.15,812.76 1472.98,817.593 1472,822.5C 1471.5,823 1471,823.5 1470.5,824C 1468.17,824.167 1465.83,824.333 1463.5,824.5C 1446.91,824.642 1429.91,824.309 1412.5,823.5C 1414.37,822.376 1416.37,821.543 1418.5,821C 1419.7,820.097 1420.53,818.931 1421,817.5C 1422.11,808.558 1422.61,799.558 1422.5,790.5C 1422.33,782.833 1422.17,775.167 1422,767.5C 1419.69,764.069 1416.85,761.402 1413.5,759.5 Z M 1480.5,759.5 C 1487.62,759.075 1494.62,759.575 1501.5,761C 1513.31,774.645 1525.64,787.812 1538.5,800.5C 1540.16,788.702 1539.66,777.035 1537,765.5C 1533.68,764.116 1530.51,762.45 1527.5,760.5C 1536.5,759.167 1545.5,759.167 1554.5,760.5C 1550.94,761.862 1547.78,763.862 1545,766.5C 1544.67,768.167 1544.33,769.833 1544,771.5C 1544.27,789.179 1544.1,806.846 1543.5,824.5C 1542.45,824.649 1541.45,824.483 1540.5,824C 1526.25,809.087 1512.08,794.254 1498,779.5C 1498.72,788.998 1498.55,798.498 1497.5,808C 1498,811.834 1499,815.501 1500.5,819C 1512.49,823.046 1511.99,824.88 1499,824.5C 1492.97,824.21 1487.14,823.877 1481.5,823.5C 1485.76,822.703 1489.26,820.703 1492,817.5C 1492.67,802.833 1492.67,788.167 1492,773.5C 1489.83,767.333 1485.67,763.167 1479.5,761C 1480.06,760.617 1480.39,760.117 1480.5,759.5 Z M 1560.5,759.5 C 1584.07,759.173 1607.57,759.506 1631,760.5C 1631.83,765.864 1631.66,771.198 1630.5,776.5C 1625.24,765.536 1616.57,760.869 1604.5,762.5C 1603.13,781.519 1603.29,800.519 1605,819.5C 1608.52,820.757 1612.02,822.09 1615.5,823.5C 1602.83,824.833 1590.17,824.833 1577.5,823.5C 1581.36,822.504 1584.52,820.504 1587,817.5C 1587.67,799.167 1587.67,780.833 1587,762.5C 1581.31,761.552 1575.81,762.385 1570.5,765C 1566.63,768.65 1563.13,772.484 1560,776.5C 1559.5,776.167 1559,775.833 1558.5,775.5C 1559.22,770.171 1559.88,764.837 1560.5,759.5 Z M 1637.5,759.5 C 1652.17,759.333 1666.84,759.5 1681.5,760C 1697.69,765.325 1700.36,774.325 1689.5,787C 1686.67,788.6 1683.67,789.766 1680.5,790.5C 1682.69,792.85 1685.19,794.85 1688,796.5C 1690.86,803.411 1693.53,810.411 1696,817.5C 1698.72,820.731 1702.22,822.564 1706.5,823C 1698.33,824.632 1690,824.965 1681.5,824C 1679.95,821.345 1678.78,818.512 1678,815.5C 1677.46,809.001 1676.13,802.668 1674,796.5C 1670.52,793.071 1666.52,791.738 1662,792.5C 1661.33,800.833 1661.33,809.167 1662,817.5C 1662.25,818.624 1662.75,819.624 1663.5,820.5C 1665.93,821.308 1668.26,822.308 1670.5,823.5C 1659.5,824.833 1648.5,824.833 1637.5,823.5C 1639.37,822.376 1641.37,821.543 1643.5,821C 1645.46,817.785 1646.63,814.285 1647,810.5C 1648.09,795.401 1647.42,780.401 1645,765.5C 1644.63,764.584 1644.13,763.75 1643.5,763C 1640.85,762.647 1638.85,761.48 1637.5,759.5 Z M 1711.5,759.5 C 1729.5,759.333 1747.5,759.5 1765.5,760C 1767.43,765.406 1768.1,770.906 1767.5,776.5C 1763.68,771.842 1759.34,767.676 1754.5,764C 1748,761.102 1741.5,760.936 1735,763.5C 1734.78,771.036 1734.28,778.536 1733.5,786C 1735.95,789.927 1739.28,790.594 1743.5,788C 1746.96,785.246 1748.96,781.746 1749.5,777.5C 1750.83,777.5 1752.17,777.5 1753.5,777.5C 1753.1,786.549 1753.1,795.549 1753.5,804.5C 1752.18,804.67 1751.01,804.337 1750,803.5C 1749.68,800.027 1748.18,797.194 1745.5,795C 1742.26,793.548 1738.93,792.381 1735.5,791.5C 1734.17,800.833 1734.17,810.167 1735.5,819.5C 1745.71,822.779 1755.37,821.612 1764.5,816C 1766.36,813.636 1768.03,811.136 1769.5,808.5C 1770.32,807.614 1771.32,807.281 1772.5,807.5C 1771.92,811.142 1771.42,814.809 1771,818.5C 1770.84,820.676 1770,822.509 1768.5,824C 1748.82,824.833 1729.16,824.666 1709.5,823.5C 1714.35,822.813 1717.52,820.146 1719,815.5C 1719.67,799.167 1719.67,782.833 1719,766.5C 1718.53,765.069 1717.7,763.903 1716.5,763C 1714.39,762.64 1712.39,761.973 1710.5,761C 1711.06,760.617 1711.39,760.117 1711.5,759.5 Z M 1937.5,759.5 C 1939.72,759.178 1941.56,759.845 1943,761.5C 1951.08,780.648 1959.41,799.648 1968,818.5C 1970.67,820.446 1973.51,822.113 1976.5,823.5C 1965.5,824.833 1954.5,824.833 1943.5,823.5C 1945,822.248 1946.67,821.248 1948.5,820.5C 1949.46,819.135 1950.12,817.635 1950.5,816C 1949.33,812.5 1948.17,809 1947,805.5C 1946.5,803.667 1945.33,802.5 1943.5,802C 1937.17,801.333 1930.83,801.333 1924.5,802C 1922.1,806.911 1920.93,812.078 1921,817.5C 1922.8,820.785 1925.63,822.619 1929.5,823C 1929.17,823.333 1928.83,823.667 1928.5,824C 1920.81,824.831 1913.15,824.665 1905.5,823.5C 1911.22,820.277 1915.39,815.61 1918,809.5C 1924.24,792.69 1930.74,776.023 1937.5,759.5 Z M 1980.5,759.5 C 1994.5,759.333 2008.5,759.5 2022.5,760C 2034.4,763.12 2037.9,770.286 2033,781.5C 2030.41,784.543 2027.24,786.71 2023.5,788C 2022.66,789.011 2022.33,790.178 2022.5,791.5C 2031.83,792.991 2037.5,798.324 2039.5,807.5C 2037,817.167 2030.83,822.834 2021,824.5C 2007.81,824.633 1993.98,824.299 1979.5,823.5C 1981.94,822.074 1984.44,820.741 1987,819.5C 1990.02,801.156 1990.02,782.822 1987,764.5C 1984.36,763.268 1982.19,761.602 1980.5,759.5 Z M 2077.5,759.5 C 2078.82,759.33 2079.99,759.663 2081,760.5C 2089.67,779.868 2098.34,799.201 2107,818.5C 2109.51,820.264 2112.01,821.931 2114.5,823.5C 2103.83,824.833 2093.17,824.833 2082.5,823.5C 2083.77,821.953 2085.43,820.953 2087.5,820.5C 2088.55,819.562 2089.22,818.395 2089.5,817C 2088.07,811.71 2086.07,806.71 2083.5,802C 2077.17,801.333 2070.83,801.333 2064.5,802C 2063.33,802.5 2062.5,803.333 2062,804.5C 2060.05,809.008 2059.38,813.674 2060,818.5C 2062.41,820.291 2064.91,821.957 2067.5,823.5C 2059.83,824.833 2052.17,824.833 2044.5,823.5C 2048.45,821.387 2051.62,818.387 2054,814.5C 2061.57,795.946 2069.4,777.613 2077.5,759.5 Z M 2119.5,759.5 C 2134.17,759.333 2148.84,759.5 2163.5,760C 2176.77,761.935 2185.93,769.101 2191,781.5C 2195.8,803.929 2187.3,818.262 2165.5,824.5C 2149.55,824.696 2133.55,824.363 2117.5,823.5C 2119.66,822.21 2121.99,821.376 2124.5,821C 2125.89,819.829 2126.73,818.329 2127,816.5C 2127.42,804.996 2127.92,793.496 2128.5,782C 2128.42,776.461 2127.92,770.961 2127,765.5C 2125.49,763.234 2123.32,762.068 2120.5,762C 2119.75,761.329 2119.41,760.496 2119.5,759.5 Z M 2308.5,759.5 C 2323.5,759.333 2338.5,759.5 2353.5,760C 2366.15,762.804 2370.32,770.304 2366,782.5C 2362.11,787.025 2357.28,789.858 2351.5,791C 2354.12,793.201 2356.95,795.035 2360,796.5C 2362.86,804.33 2366.03,811.996 2369.5,819.5C 2372.28,821.117 2375.28,822.284 2378.5,823C 2370.27,824.604 2361.94,824.937 2353.5,824C 2352.11,822.829 2351.27,821.329 2351,819.5C 2350.14,811.966 2348.48,804.632 2346,797.5C 2342.84,793.505 2338.68,791.505 2333.5,791.5C 2333.8,796.099 2333.47,800.599 2332.5,805C 2333.3,809.414 2333.8,813.914 2334,818.5C 2336.3,820.523 2338.8,822.189 2341.5,823.5C 2330.83,824.833 2320.17,824.833 2309.5,823.5C 2311.37,822.376 2313.37,821.543 2315.5,821C 2316.13,820.25 2316.63,819.416 2317,818.5C 2318.97,800.507 2318.97,782.507 2317,764.5C 2313.81,763.197 2310.98,761.53 2308.5,759.5 Z M 2412.5,759.5 C 2413.98,759.238 2415.31,759.571 2416.5,760.5C 2425.35,780.367 2434.35,800.201 2443.5,820C 2446.25,820.516 2448.58,821.683 2450.5,823.5C 2439.5,824.833 2428.5,824.833 2417.5,823.5C 2419.73,822.258 2421.9,820.924 2424,819.5C 2424.39,813.012 2422.56,807.178 2418.5,802C 2412.5,801.333 2406.5,801.333 2400.5,802C 2398.28,802.652 2397.11,804.152 2397,806.5C 2395.97,810.177 2395.3,813.844 2395,817.5C 2397.02,820.438 2399.86,822.272 2403.5,823C 2403.17,823.333 2402.83,823.667 2402.5,824C 2394.81,824.831 2387.15,824.665 2379.5,823.5C 2381.83,822 2384.17,820.5 2386.5,819C 2388,816.833 2389.5,814.667 2391,812.5C 2397.89,794.655 2405.06,776.989 2412.5,759.5 Z M 2452.5,759.5 C 2459.51,759.334 2466.51,759.5 2473.5,760C 2486.03,773.193 2498.53,786.36 2511,799.5C 2512.64,788.992 2512.97,778.325 2512,767.5C 2510.83,766.333 2509.67,765.167 2508.5,764C 2505.59,763.311 2502.93,762.145 2500.5,760.5C 2509.83,759.167 2519.17,759.167 2528.5,760.5C 2525.75,762.293 2522.92,763.959 2520,765.5C 2519,767.833 2518,770.167 2517,772.5C 2517.73,780.275 2518.23,788.108 2518.5,796C 2518.04,805.519 2517.37,815.019 2516.5,824.5C 2515.45,824.649 2514.45,824.483 2513.5,824C 2499.96,810.457 2487.12,796.29 2475,781.5C 2473.99,780.663 2472.82,780.33 2471.5,780.5C 2471.33,791.838 2471.5,803.172 2472,814.5C 2472.79,816.587 2473.96,818.421 2475.5,820C 2478.5,821 2481.5,822 2484.5,823C 2479.27,824.118 2473.94,824.618 2468.5,824.5C 2463.83,824.167 2459.17,823.833 2454.5,823.5C 2457.53,822.433 2460.53,821.266 2463.5,820C 2465.24,817.808 2466.4,815.308 2467,812.5C 2467.67,801.5 2467.67,790.5 2467,779.5C 2466.2,776.107 2465.2,772.774 2464,769.5C 2460.49,765.541 2456.66,762.208 2452.5,759.5 Z M 2561.5,759.5 C 2569.88,759.014 2578.04,760.014 2586,762.5C 2588.68,761.72 2591.18,760.887 2593.5,760C 2594.85,767.056 2595.52,774.223 2595.5,781.5C 2594.18,781.67 2593.01,781.337 2592,780.5C 2588.62,770.354 2581.78,764.02 2571.5,761.5C 2563.6,762.239 2558.1,766.239 2555,773.5C 2550.32,786.775 2551.65,799.441 2559,811.5C 2567.5,820.523 2577,821.69 2587.5,815C 2590.28,812.598 2592.95,810.098 2595.5,807.5C 2595.83,808 2596.17,808.5 2596.5,809C 2592.85,815.507 2587.51,820.174 2580.5,823C 2565.03,827.676 2551.86,824.176 2541,812.5C 2530.17,793.988 2533,777.821 2549.5,764C 2553.5,762.151 2557.5,760.651 2561.5,759.5 Z M 2633.5,759.5 C 2652.82,756.627 2666.32,763.961 2674,781.5C 2677.24,801.593 2669.41,815.426 2650.5,823C 2634.52,827.467 2621.02,823.633 2610,811.5C 2599.44,792.1 2603.27,776.266 2621.5,764C 2625.43,761.972 2629.43,760.472 2633.5,759.5 Z M 2682.5,759.5 C 2697.17,759.333 2711.84,759.5 2726.5,760C 2739.82,762.459 2744.65,770.293 2741,783.5C 2737.71,789.067 2732.88,792.567 2726.5,794C 2719.84,794.5 2713.17,794.666 2706.5,794.5C 2706.33,802.507 2706.5,810.507 2707,818.5C 2707.37,819.416 2707.87,820.25 2708.5,821C 2711.27,821.526 2713.94,822.359 2716.5,823.5C 2705.17,824.833 2693.83,824.833 2682.5,823.5C 2684.37,822.376 2686.37,821.543 2688.5,821C 2689.72,819.352 2690.55,817.519 2691,815.5C 2692.89,799.13 2692.89,782.797 2691,766.5C 2690.53,765.069 2689.7,763.903 2688.5,763C 2685.85,762.647 2683.85,761.48 2682.5,759.5 Z M 2750.5,759.5 C 2760.85,759.168 2771.19,759.501 2781.5,760.5C 2779.27,761.742 2777.1,763.076 2775,764.5C 2773.49,773.113 2773.16,781.78 2774,790.5C 2774.5,791 2775,791.5 2775.5,792C 2783.5,792.667 2791.5,792.667 2799.5,792C 2800.57,791.261 2801.24,790.261 2801.5,789C 2800.89,781.72 2800.39,774.22 2800,766.5C 2799.53,765.069 2798.7,763.903 2797.5,763C 2795.37,762.457 2793.37,761.624 2791.5,760.5C 2802.83,759.167 2814.17,759.167 2825.5,760.5C 2822.22,761.525 2819.38,763.192 2817,765.5C 2815.48,782.471 2815.14,799.471 2816,816.5C 2817.29,820.58 2820.13,822.914 2824.5,823.5C 2813.17,824.833 2801.83,824.833 2790.5,823.5C 2793.48,822.388 2796.31,821.054 2799,819.5C 2800.18,811.208 2800.68,802.875 2800.5,794.5C 2791.58,794.183 2782.75,794.516 2774,795.5C 2773.81,800.418 2773.31,805.251 2772.5,810C 2773.13,813.76 2774.13,817.427 2775.5,821C 2777.63,821.543 2779.63,822.376 2781.5,823.5C 2770.85,824.666 2760.18,824.832 2749.5,824C 2749.17,823.667 2748.83,823.333 2748.5,823C 2751.91,822.431 2754.75,820.931 2757,818.5C 2758.58,801.539 2758.91,784.539 2758,767.5C 2757.6,766.128 2757.1,764.795 2756.5,763.5C 2753.98,762.697 2751.98,761.364 2750.5,759.5 Z M 2861.5,759.5 C 2891.77,757.816 2904.94,771.816 2901,801.5C 2889.32,823.241 2871.82,829.741 2848.5,821C 2833.85,812.167 2828.68,799.334 2833,782.5C 2838.59,769.72 2848.09,762.053 2861.5,759.5 Z M 2908.5,759.5 C 2915.95,759.071 2923.28,759.571 2930.5,761C 2942.37,774.039 2954.71,786.539 2967.5,798.5C 2968.31,798.192 2968.97,797.692 2969.5,797C 2968.91,787.186 2968.07,777.352 2967,767.5C 2966.53,766.069 2965.7,764.903 2964.5,764C 2961.59,763.867 2959.25,762.7 2957.5,760.5C 2966.15,759.335 2974.81,759.168 2983.5,760C 2983.83,760.333 2984.17,760.667 2984.5,761C 2981.11,762.125 2977.94,763.625 2975,765.5C 2974.08,768.101 2973.41,770.768 2973,773.5C 2973.57,789.806 2973.57,806.14 2973,822.5C 2972.16,824.007 2971,824.507 2969.5,824C 2955.26,809.265 2941.26,794.432 2927.5,779.5C 2926.33,790.151 2926.17,800.818 2927,811.5C 2927.9,814.292 2929.06,816.959 2930.5,819.5C 2933.38,820.961 2936.38,822.127 2939.5,823C 2930.33,824.636 2920.99,824.969 2911.5,824C 2911.17,823.667 2910.83,823.333 2910.5,823C 2916,822.846 2919.83,820.346 2922,815.5C 2922.67,802.167 2922.67,788.833 2922,775.5C 2920.67,772.833 2919.33,770.167 2918,767.5C 2914.41,765.153 2911.25,762.487 2908.5,759.5 Z M 2990.5,759.5 C 3008.17,759.333 3025.84,759.5 3043.5,760C 3046.47,765.188 3047.14,770.688 3045.5,776.5C 3038.41,763.774 3027.91,759.441 3014,763.5C 3013.26,770.345 3012.43,777.178 3011.5,784C 3011.54,785.764 3011.88,787.431 3012.5,789C 3021.59,790.295 3026.93,786.461 3028.5,777.5C 3029.5,777.5 3030.5,777.5 3031.5,777.5C 3031.83,786.525 3031.5,795.525 3030.5,804.5C 3028.57,801.318 3026.57,798.152 3024.5,795C 3021.29,793.908 3018.12,792.741 3015,791.5C 3014.67,791.833 3014.33,792.167 3014,792.5C 3013.33,801.5 3013.33,810.5 3014,819.5C 3016.62,821.032 3019.45,822.032 3022.5,822.5C 3034.09,823.043 3042.75,818.376 3048.5,808.5C 3049.32,807.614 3050.32,807.281 3051.5,807.5C 3050.12,812.368 3049.29,817.368 3049,822.5C 3048.5,823 3048,823.5 3047.5,824C 3028.47,824.48 3008.8,824.313 2988.5,823.5C 2991.78,822.475 2994.62,820.808 2997,818.5C 2997.51,806.834 2998.01,795.167 2998.5,783.5C 2998.47,777.126 2997.97,770.793 2997,764.5C 2994.6,763.144 2992.1,761.977 2989.5,761C 2990.06,760.617 2990.39,760.117 2990.5,759.5 Z M 2637.5,897.5 C 2649.32,898.096 2660.99,899.929 2672.5,903C 2712.63,913.783 2752.97,923.783 2793.5,933C 2810.49,935.992 2820.99,945.825 2825,962.5C 2825.67,1017.5 2825.67,1072.5 2825,1127.5C 2821.2,1144.63 2810.7,1155.13 2793.5,1159C 2785.88,1160.29 2778.21,1161.29 2770.5,1162C 2695.16,1167.61 2619.83,1172.95 2544.5,1178C 2544,1177.5 2543.5,1177 2543,1176.5C 2541,1162.18 2539.17,1147.84 2537.5,1133.5C 2538.04,1132.25 2538.71,1131.09 2539.5,1130C 2602.44,1124.63 2665.44,1119.97 2728.5,1116C 2737.24,1115.56 2745.57,1113.56 2753.5,1110C 2754.67,1108.17 2755.83,1106.33 2757,1104.5C 2758.64,1068.55 2758.97,1032.55 2758,996.5C 2758.22,986.098 2753.72,978.598 2744.5,974C 2722.51,968.669 2700.51,963.336 2678.5,958C 2669.77,956.878 2661.44,958.212 2653.5,962C 2642.65,973.547 2633.15,986.047 2625,999.5C 2622.94,1007.54 2625.77,1013.04 2633.5,1016C 2643.88,1020.47 2654.22,1025.13 2664.5,1030C 2666.18,1030.35 2667.18,1031.35 2667.5,1033C 2666.8,1034.89 2665.97,1036.73 2665,1038.5C 2655.07,1048.75 2645.57,1059.25 2636.5,1070C 2634.83,1070.67 2633.17,1070.67 2631.5,1070C 2606.24,1057.74 2580.91,1045.58 2555.5,1033.5C 2547.86,1026.08 2545.36,1017.08 2548,1006.5C 2548.76,1003.22 2550.09,1000.22 2552,997.5C 2576.79,965.712 2601.95,934.212 2627.5,903C 2630.77,900.87 2634.1,899.037 2637.5,897.5 Z M 2927.5,897.5 C 2938.63,900.868 2949.63,904.702 2960.5,909C 2983.35,918.171 3006.18,927.338 3029,936.5C 3030.65,1010.8 3030.98,1085.13 3030,1159.5C 3029.68,1161.06 3028.85,1162.23 3027.5,1163C 3006.83,1163.67 2986.17,1163.67 2965.5,1163C 2965,1162.5 2964.5,1162 2964,1161.5C 2963.67,1096.5 2963.33,1031.5 2963,966.5C 2961.89,964.185 2960.06,962.685 2957.5,962C 2934.47,954.878 2911.47,947.544 2888.5,940C 2887.64,939.311 2886.98,938.478 2886.5,937.5C 2900.01,923.93 2913.67,910.597 2927.5,897.5 Z M 1824.5,902.5 C 1843.91,908.038 1863.25,913.871 1882.5,920C 1913.47,951.307 1944.81,982.307 1976.5,1013C 1977.67,1013.17 1978.83,1013.33 1980,1013.5C 2002.75,1008.64 2021.75,997.638 2037,980.5C 2040.43,975.403 2043.43,970.069 2046,964.5C 2046.82,962.299 2046.32,960.466 2044.5,959C 2030.98,952.742 2017.31,946.742 2003.5,941C 2000.19,939.463 1999.69,937.296 2002,934.5C 2012.4,923.931 2022.9,913.598 2033.5,903.5C 2067.23,916.356 2101.23,928.523 2135.5,940C 2136.69,941.019 2137.69,942.186 2138.5,943.5C 2130.1,963.968 2118.44,982.301 2103.5,998.5C 2087.11,1016.06 2068.78,1031.23 2048.5,1044C 2039.93,1048.78 2031.6,1053.78 2023.5,1059C 2044.35,1080.85 2065.52,1102.35 2087,1123.5C 2093.16,1134.38 2090.66,1142.88 2079.5,1149C 2071.17,1152.58 2062.51,1154.92 2053.5,1156C 1972.33,1164.89 1891.16,1173.72 1810,1182.5C 1807.83,1182.17 1805.67,1181.83 1803.5,1181.5C 1800.05,1167.76 1797.05,1153.93 1794.5,1140C 1795.17,1138.67 1796.17,1137.67 1797.5,1137C 1855.13,1130.75 1912.8,1124.75 1970.5,1119C 1981.4,1114.66 1984.23,1107.16 1979,1096.5C 1933.89,1052.39 1889.05,1007.89 1844.5,963C 1826.7,957.623 1808.87,952.456 1791,947.5C 1790.33,946.167 1790.33,944.833 1791,943.5C 1801.02,930.976 1810.86,918.31 1820.5,905.5C 1821.9,904.479 1823.23,903.479 1824.5,902.5 Z M 1389.5,903.5 C 1400.44,906.15 1411.44,908.65 1422.5,911C 1434.43,912.797 1446.43,913.797 1458.5,914C 1535.83,914.333 1613.17,914.667 1690.5,915C 1705.74,918.591 1717.24,927.091 1725,940.5C 1726.15,944.772 1726.99,949.106 1727.5,953.5C 1726.28,1012.27 1726.28,1071.1 1727.5,1130C 1727.63,1140.9 1727.13,1151.74 1726,1162.5C 1704.57,1163.66 1683.07,1163.83 1661.5,1163C 1659.9,1161.93 1658.9,1160.43 1658.5,1158.5C 1658.66,1097.77 1659,1042.77 1659.5,993.5C 1661.17,978.336 1654.83,968.17 1640.5,963C 1591.26,962.17 1542.1,962.336 1493,963.5C 1492.67,1027.5 1492.33,1091.5 1492,1155.5C 1491.5,1156 1491,1156.5 1490.5,1157C 1451.74,1159.22 1412.74,1161.89 1373.5,1165C 1366.17,1165.67 1358.83,1165.67 1351.5,1165C 1352.07,1149.43 1354.07,1133.93 1357.5,1118.5C 1379.09,1116.21 1400.75,1114.71 1422.5,1114C 1423.67,1113.5 1424.5,1112.67 1425,1111.5C 1425.67,1062.17 1425.67,1012.83 1425,963.5C 1408.48,961.588 1391.98,959.088 1375.5,956C 1368.4,953.946 1361.4,951.613 1354.5,949C 1353.64,948.311 1352.98,947.478 1352.5,946.5C 1365.2,932.467 1377.53,918.134 1389.5,903.5 Z M 2224.5,904.5 C 2233.15,906.662 2241.81,908.828 2250.5,911C 2260.07,912.857 2269.74,913.857 2279.5,914C 2335.83,914.333 2392.17,914.667 2448.5,915C 2465.18,919.343 2475.35,929.843 2479,946.5C 2479.67,1018.17 2479.67,1089.83 2479,1161.5C 2478.5,1162 2478,1162.5 2477.5,1163C 2456.17,1163.67 2434.83,1163.67 2413.5,1163C 2413,1162.5 2412.5,1162 2412,1161.5C 2411.67,1100.5 2411.33,1039.5 2411,978.5C 2405.41,970.577 2397.91,965.411 2388.5,963C 2336.82,962.895 2285.16,962.229 2233.5,961C 2222.92,960.022 2212.92,957.189 2203.5,952.5C 2202.37,950.926 2202.2,949.259 2203,947.5C 2209.65,932.861 2216.82,918.528 2224.5,904.5 Z M 1129.5,1256.5 C 1449.85,1256.17 1770.18,1256.5 2090.5,1257.5C 2090.5,1515.17 2090.5,1772.83 2090.5,2030.5C 2034.53,2040.1 1980.53,2056.27 1928.5,2079C 1857.8,2111.49 1794.13,2154.16 1737.5,2207C 1725.79,2220.01 1713.46,2232.34 1700.5,2244C 1508.5,2244.67 1316.5,2244.67 1124.5,2244C 1124,2243.5 1123.5,2243 1123,2242.5C 1122.5,1914.17 1122.33,1585.83 1122.5,1257.5C 1125.06,1257.8 1127.39,1257.47 1129.5,1256.5 Z M 2304.5,1256.5 C 2624.74,1256.54 2943.24,1256.54 3260,1256.5C 3263.12,1256.79 3266.12,1257.46 3269,1258.5C 3269.67,1586.5 3269.67,1914.5 3269,2242.5C 3268.5,2243 3268,2243.5 3267.5,2244C 3077.5,2244.67 2887.5,2244.67 2697.5,2244C 2655.7,2200.19 2609.7,2161.52 2559.5,2128C 2498.82,2089.68 2433.82,2061.01 2364.5,2042C 2343.68,2037.12 2322.84,2032.62 2302,2028.5C 2301.5,1771.5 2301.33,1514.5 2301.5,1257.5C 2302.79,1257.74 2303.79,1257.4 2304.5,1256.5 Z M 2173.5,2044.5 C 2175.83,2044.5 2178.17,2044.5 2180.5,2044.5C 2180.5,2077.17 2180.5,2109.83 2180.5,2142.5C 2139.63,2145.3 2100.63,2155.13 2063.5,2172C 2048.81,2180.34 2034.81,2189.67 2021.5,2200C 2004.85,2215.34 1993.01,2233.84 1986,2255.5C 1985.5,2260.19 1984.83,2264.86 1984,2269.5C 1983.53,2270.93 1982.7,2272.1 1981.5,2273C 1909.53,2285.33 1838.2,2300.33 1767.5,2318C 1755.38,2321.87 1743.38,2326.04 1731.5,2330.5C 1730.01,2330.29 1728.84,2329.62 1728,2328.5C 1720.26,2307.48 1716.26,2285.81 1716,2263.5C 1743.01,2232.15 1772.84,2203.99 1805.5,2179C 1914.38,2096.43 2037.04,2051.6 2173.5,2044.5 Z M 2205.5,2044.5 C 2372.42,2048.84 2517.08,2107.01 2639.5,2219C 2655,2234.17 2670.17,2249.67 2685,2265.5C 2686.01,2267.53 2686.51,2269.7 2686.5,2272C 2684.9,2297.69 2680.56,2322.85 2673.5,2347.5C 2672.64,2348.58 2671.64,2348.75 2670.5,2348C 2611.89,2311.34 2548.56,2286.01 2480.5,2272C 2461.57,2269.12 2442.57,2266.95 2423.5,2265.5C 2421.15,2255.25 2417.98,2245.25 2414,2235.5C 2402.28,2215.45 2386.78,2198.95 2367.5,2186C 2329.25,2162.25 2287.59,2148.25 2242.5,2144C 2229.81,2143.13 2217.14,2142.29 2204.5,2141.5C 2204.17,2125.5 2203.83,2109.5 2203.5,2093.5C 2203.51,2076.95 2204.18,2060.61 2205.5,2044.5 Z M 2190.5,2164.5 C 2238.4,2162.99 2284.4,2171.49 2328.5,2190C 2352.83,2201 2373,2217.17 2389,2238.5C 2404.75,2266.83 2402.75,2293.83 2383,2319.5C 2365.9,2338.57 2345.4,2353.07 2321.5,2363C 2256.45,2387.15 2190.11,2391.15 2122.5,2375C 2091.77,2367.8 2064.1,2354.47 2039.5,2335C 2026.6,2323.68 2016.76,2310.18 2010,2294.5C 2004.54,2274.58 2007.21,2255.91 2018,2238.5C 2022.24,2233.68 2026.24,2228.68 2030,2223.5C 2051.57,2203.78 2076.4,2189.28 2104.5,2180C 2132.69,2171.4 2161.36,2166.23 2190.5,2164.5 Z M 2423.5,2288.5 C 2466.19,2290.74 2507.85,2299.24 2548.5,2314C 2589.39,2329.11 2628.06,2348.45 2664.5,2372C 2664.91,2373.14 2665.24,2374.31 2665.5,2375.5C 2637.52,2451.33 2588.85,2510.16 2519.5,2552C 2517.3,2552.82 2515.47,2552.32 2514,2550.5C 2481.36,2501.52 2446.03,2454.52 2408,2409.5C 2394.36,2394.87 2381.2,2379.87 2368.5,2364.5C 2373.7,2359.13 2379.37,2354.3 2385.5,2350C 2396.69,2339.15 2406.19,2326.99 2414,2313.5C 2417.27,2305.18 2420.44,2296.84 2423.5,2288.5 Z M 1692.5,2289.5 C 1693.69,2289.97 1694.36,2290.97 1694.5,2292.5C 1697.89,2307.72 1702.05,2322.72 1707,2337.5C 1707.65,2339.24 1707.48,2340.9 1706.5,2342.5C 1678.13,2357.88 1650.79,2374.88 1624.5,2393.5C 1624.17,2393 1623.83,2392.5 1623.5,2392C 1643.15,2355.53 1666.15,2321.36 1692.5,2289.5 Z M 2707.5,2293.5 C 2712.35,2297.53 2716.52,2302.2 2720,2307.5C 2748.82,2346.13 2773.82,2387.13 2795,2430.5C 2795.67,2431.83 2795.67,2433.17 2795,2434.5C 2762.98,2409.24 2729.81,2385.57 2695.5,2363.5C 2694.36,2361.58 2694.19,2359.58 2695,2357.5C 2700.78,2336.47 2704.95,2315.13 2707.5,2293.5 Z M 1980.5,2295.5 C 1982.79,2295.24 1984.96,2295.58 1987,2296.5C 1989.55,2304.82 1992.89,2312.82 1997,2320.5C 2008.31,2337.64 2022.48,2351.98 2039.5,2363.5C 2040.58,2364.36 2040.75,2365.36 2040,2366.5C 2010.28,2400.04 1980.78,2433.71 1951.5,2467.5C 1944.52,2476.98 1937.36,2486.31 1930,2495.5C 1917.27,2510.24 1905.27,2525.57 1894,2541.5C 1892.45,2544.1 1890.28,2545.27 1887.5,2545C 1875.37,2539.44 1864.04,2532.6 1853.5,2524.5C 1842.21,2513.71 1831.04,2502.71 1820,2491.5C 1790.43,2454.36 1765.43,2414.36 1745,2371.5C 1742.69,2365.71 1740.52,2359.88 1738.5,2354C 1741.69,2351.24 1745.36,2349.24 1749.5,2348C 1758.36,2344.6 1767.36,2341.6 1776.5,2339C 1844.29,2322.87 1912.29,2308.37 1980.5,2295.5 Z M 1714.5,2363.5 C 1716.02,2363.51 1717.18,2364.18 1718,2365.5C 1743.38,2428.46 1779.88,2483.96 1827.5,2532C 1841.27,2544.72 1856.6,2555.22 1873.5,2563.5C 1873.83,2564.5 1874.17,2565.5 1874.5,2566.5C 1848.98,2604.55 1824.81,2643.55 1802,2683.5C 1794.09,2698.98 1786.43,2714.65 1779,2730.5C 1778.13,2732.61 1776.63,2733.95 1774.5,2734.5C 1756.93,2727.05 1740.59,2717.55 1725.5,2706C 1694.18,2680.88 1665.68,2652.71 1640,2621.5C 1616.71,2591.87 1595.38,2560.87 1576,2528.5C 1573.27,2523.71 1571.1,2518.71 1569.5,2513.5C 1576.94,2490.29 1585.77,2467.62 1596,2445.5C 1632.67,2413.98 1672.17,2386.65 1714.5,2363.5 Z M 2343.5,2376.5 C 2346.42,2376.15 2348.75,2377.15 2350.5,2379.5C 2404.14,2436.84 2452.47,2498.17 2495.5,2563.5C 2495.02,2564.48 2494.36,2565.31 2493.5,2566C 2440.95,2592.29 2385.28,2609.62 2326.5,2618C 2285.99,2623.95 2245.33,2625.78 2204.5,2623.5C 2203.5,2551.84 2203.17,2480.17 2203.5,2408.5C 2234.51,2406.86 2265.18,2402.7 2295.5,2396C 2312.36,2391.3 2328.36,2384.8 2343.5,2376.5 Z M 2062.5,2377.5 C 2100.03,2395.07 2139.36,2404.73 2180.5,2406.5C 2180.26,2408.47 2180.59,2410.3 2181.5,2412C 2180.83,2482.1 2180.17,2552.27 2179.5,2622.5C 2087.83,2617.08 1999.83,2595.92 1915.5,2559C 1913.59,2558.59 1912.59,2557.43 1912.5,2555.5C 1918.49,2547.33 1924.33,2539 1930,2530.5C 1972.25,2477.76 2016.42,2426.76 2062.5,2377.5 Z M 2687.5,2385.5 C 2726.27,2411.26 2763.93,2438.59 2800.5,2467.5C 2801.4,2483.33 2799.9,2499 2796,2514.5C 2787.63,2549.23 2773.3,2581.23 2753,2610.5C 2714.74,2662.09 2667.74,2703.76 2612,2735.5C 2610.35,2735.18 2609.35,2734.18 2609,2732.5C 2586.76,2677.36 2560.26,2624.36 2529.5,2573.5C 2565.13,2551.04 2596.96,2524.04 2625,2492.5C 2650.98,2459.98 2671.81,2424.31 2687.5,2385.5 Z M 2821.5,2499.5 C 2823.14,2500.75 2824.3,2502.42 2825,2504.5C 2856.75,2596.15 2870.08,2690.49 2865,2787.5C 2828.14,2839.7 2784.97,2886.2 2735.5,2927C 2719.48,2938.37 2703.48,2949.7 2687.5,2961C 2680.56,2964.8 2673.56,2968.3 2666.5,2971.5C 2658.74,2900.06 2643.24,2830.4 2620,2762.5C 2619.33,2760.83 2619.33,2759.17 2620,2757.5C 2672.66,2727.84 2718.32,2689.84 2757,2643.5C 2791.23,2601.35 2812.73,2553.35 2821.5,2499.5 Z M 1559.5,2547.5 C 1560.38,2547.37 1561.04,2547.7 1561.5,2548.5C 1600.79,2614.31 1649.79,2672.14 1708.5,2722C 1726.03,2735.02 1744.7,2746.19 1764.5,2755.5C 1765.65,2757.76 1765.81,2760.1 1765,2762.5C 1740.63,2821.66 1722.63,2882.66 1711,2945.5C 1655.5,2908.72 1604.83,2866.06 1559,2817.5C 1549.35,2806.21 1540.69,2794.21 1533,2781.5C 1528.54,2701.89 1537.37,2623.89 1559.5,2547.5 Z M 1896.5,2576.5 C 1921.58,2586.81 1946.92,2596.64 1972.5,2606C 2039.87,2627.79 2108.87,2641.29 2179.5,2646.5C 2180.5,2713.5 2180.83,2780.5 2180.5,2847.5C 2120.22,2846.74 2060.89,2838.91 2002.5,2824C 1932.68,2805.11 1865.35,2779.61 1800.5,2747.5C 1798.1,2744.7 1797.93,2741.7 1800,2738.5C 1827.35,2681.43 1859.52,2627.43 1896.5,2576.5 Z M 2505.5,2585.5 C 2507.9,2585.39 2509.74,2586.39 2511,2588.5C 2542.56,2638.27 2568.73,2690.94 2589.5,2746.5C 2589.47,2748.03 2588.8,2749.2 2587.5,2750C 2467,2811.63 2339,2844.13 2203.5,2847.5C 2203.5,2780.83 2203.5,2714.17 2203.5,2647.5C 2288.38,2650.06 2371.05,2637.56 2451.5,2610C 2470.25,2603.12 2488.25,2594.95 2505.5,2585.5 Z M 2972.5,2704.5 C 2994.7,2711.69 3010.7,2726.03 3020.5,2747.5C 3021.17,2747.83 3021.83,2748.17 3022.5,2748.5C 3032.26,2741.57 3041.26,2733.74 3049.5,2725C 3054.23,2722.75 3058.39,2723.58 3062,2727.5C 3064.48,2733.57 3065.81,2739.91 3066,2746.5C 3066.33,2759.52 3067,2772.52 3068,2785.5C 3068.83,2804.41 3068.66,2823.24 3067.5,2842C 3065.9,2842.27 3064.4,2842.77 3063,2843.5C 3059.89,2842.29 3056.72,2842.29 3053.5,2843.5C 3051.4,2843.37 3049.9,2842.37 3049,2840.5C 3048.68,2816.78 3047.68,2793.12 3046,2769.5C 3044.69,2768.43 3043.19,2767.76 3041.5,2767.5C 3029.82,2774.67 3018.82,2782.84 3008.5,2792C 2997.05,2799.78 2985.89,2807.95 2975,2816.5C 2973.03,2821.4 2970.86,2826.23 2968.5,2831C 2967.5,2831.67 2966.5,2831.67 2965.5,2831C 2961.02,2827.35 2956.68,2823.52 2952.5,2819.5C 2951.46,2817.23 2951.29,2814.9 2952,2812.5C 2954.33,2807.83 2956.67,2803.17 2959,2798.5C 2971.83,2789 2984.67,2779.5 2997.5,2770C 2999.68,2768.5 3001.01,2766.5 3001.5,2764C 2999.28,2753.47 2993.62,2745.47 2984.5,2740C 2982.83,2739.33 2981.17,2739.33 2979.5,2740C 2977.54,2743.42 2975.71,2746.92 2974,2750.5C 2972.65,2752.02 2971.15,2753.35 2969.5,2754.5C 2964.52,2751.36 2960.36,2747.36 2957,2742.5C 2956.68,2740.45 2957.01,2738.45 2958,2736.5C 2963.14,2725.9 2967.97,2715.23 2972.5,2704.5 Z M 1398.5,2721.5 C 1402.32,2724.48 1406.32,2727.31 1410.5,2730C 1413.1,2732.09 1415.1,2734.59 1416.5,2737.5C 1411.63,2750.07 1406.63,2762.57 1401.5,2775C 1370.49,2778.1 1339.49,2781.27 1308.5,2784.5C 1307.23,2784.43 1306.06,2784.1 1305,2783.5C 1303.2,2774.85 1302.7,2766.19 1303.5,2757.5C 1331.08,2754.5 1358.74,2752.34 1386.5,2751C 1387.42,2750.63 1388.25,2750.13 1389,2749.5C 1391.28,2739.83 1394.45,2730.49 1398.5,2721.5 Z M 1787.5,2768.5 C 1789.93,2768.52 1792.26,2769.02 1794.5,2770C 1891.04,2818.01 1992.54,2850.17 2099,2866.5C 2099.33,2866.17 2099.67,2865.83 2100,2865.5C 2126.95,2869 2153.78,2871 2180.5,2871.5C 2180.5,2938.17 2180.5,3004.83 2180.5,3071.5C 2038.39,3075.91 1903.39,3047.41 1775.5,2986C 1762.17,2978 1748.83,2970 1735.5,2962C 1734.37,2957.59 1734.2,2953.09 1735,2948.5C 1744.57,2885.97 1762.07,2825.97 1787.5,2768.5 Z M 2596.5,2770.5 C 2598.41,2770.57 2599.58,2771.57 2600,2773.5C 2623.01,2841.21 2637.84,2910.71 2644.5,2982C 2644.22,2983.4 2643.55,2984.56 2642.5,2985.5C 2601.19,3005.32 2558.36,3019.99 2514,3029.5C 2500,3033.64 2485.83,3037.14 2471.5,3040C 2382.97,3056.46 2293.64,3066.96 2203.5,3071.5C 2203.17,3005.16 2203.5,2938.83 2204.5,2872.5C 2326.47,2867.25 2443.8,2840.09 2556.5,2791C 2570.33,2784.92 2583.67,2778.08 2596.5,2770.5 Z M 1417.5,2794.5 C 1420.04,2794.1 1422.21,2794.77 1424,2796.5C 1424.5,2802.16 1424.67,2807.82 1424.5,2813.5C 1414.79,2812.74 1405.12,2811.58 1395.5,2810C 1394.33,2809.5 1393.5,2808.67 1393,2807.5C 1392.18,2804.45 1392.35,2801.45 1393.5,2798.5C 1401.71,2797.67 1409.71,2796.34 1417.5,2794.5 Z M 1395.5,2827.5 C 1405.92,2827.64 1416.25,2828.64 1426.5,2830.5C 1427.98,2836.08 1428.98,2841.75 1429.5,2847.5C 1419.08,2845.48 1408.74,2842.98 1398.5,2840C 1395.92,2836.28 1394.92,2832.12 1395.5,2827.5 Z M 1536.5,2828.5 C 1537.24,2828.37 1537.91,2828.54 1538.5,2829C 1589.01,2883.19 1645.17,2930.36 1707,2970.5C 1706.46,2988.53 1705.13,3006.53 1703,3024.5C 1702.67,3044.34 1702.17,3064.17 1701.5,3084C 1702,3102.4 1702.66,3120.74 1703.5,3139C 1703.17,3139.33 1702.83,3139.67 1702.5,3140C 1703.99,3145.7 1704.65,3151.53 1704.5,3157.5C 1672.15,3139.69 1643.31,3117.02 1618,3089.5C 1614.33,3084.17 1610.67,3078.83 1607,3073.5C 1568.92,2995.78 1545.42,2914.11 1536.5,2828.5 Z M 2858.5,2833.5 C 2859.79,2835.05 2860.46,2837.05 2860.5,2839.5C 2849.26,2927.06 2823.42,3010.06 2783,3088.5C 2745.59,3119.45 2708.09,3150.29 2670.5,3181C 2668.73,3182.76 2667.06,3182.76 2665.5,3181C 2668.49,3147.96 2670.49,3114.79 2671.5,3081.5C 2670.17,3068.84 2670.17,3056.34 2671.5,3044C 2669.47,3028.66 2668.63,3013.5 2669,2998.5C 2737.38,2959.48 2796.71,2909.48 2847,2848.5C 2850.67,2843.34 2854.5,2838.34 2858.5,2833.5 Z M 2962.5,2852.5 C 2994,2869.51 3016.16,2894.84 3029,2928.5C 3037.09,2951.14 3041.09,2974.48 3041,2998.5C 3040.61,2999.43 3039.95,3000.09 3039,3000.5C 3033.29,3001.79 3027.62,3001.79 3022,3000.5C 3020.32,2985.72 3017.99,2971.06 3015,2956.5C 3014.5,2956 3014,2955.5 3013.5,2955C 2994.84,2955.22 2976.17,2955.89 2957.5,2957C 2951.95,2962.05 2946.29,2966.89 2940.5,2971.5C 2939.83,2971.33 2939.17,2971.17 2938.5,2971C 2933.98,2965.98 2929.65,2960.81 2925.5,2955.5C 2926.53,2954.3 2927.36,2952.97 2928,2951.5C 2934.07,2945.55 2940.24,2939.72 2946.5,2934C 2966.12,2933.95 2985.62,2932.78 3005,2930.5C 3005.63,2928.36 3005.3,2926.36 3004,2924.5C 2995.69,2910.85 2985.86,2898.35 2974.5,2887C 2972.92,2886.29 2971.42,2885.46 2970,2884.5C 2965.6,2888.97 2961.93,2893.97 2959,2899.5C 2956.41,2903.31 2953.58,2903.48 2950.5,2900C 2946.47,2895.97 2942.47,2891.97 2938.5,2888C 2946.63,2876.22 2954.63,2864.39 2962.5,2852.5 Z M 1408.5,2877.5 C 1415.51,2878.66 1422.18,2881 1428.5,2884.5C 1428.43,2892.87 1428.93,2901.2 1430,2909.5C 1435.04,2932.97 1440.71,2956.3 1447,2979.5C 1447.87,2989.6 1443.7,2996.77 1434.5,3001C 1406.84,3011.83 1379.17,3022.66 1351.5,3033.5C 1349.23,3033.07 1347.73,3031.74 1347,3029.5C 1345.64,3023.95 1344.14,3018.45 1342.5,3013C 1342.64,3012.23 1342.98,3011.56 1343.5,3011C 1367.28,3001.41 1391.28,2992.41 1415.5,2984C 1419.69,2981.82 1422.36,2978.48 1423.5,2974C 1419.2,2959.53 1415.54,2944.86 1412.5,2930C 1412.23,2928.39 1411.4,2927.23 1410,2926.5C 1386.54,2933.33 1363.04,2940.16 1339.5,2947C 1336.51,2947.87 1333.51,2948.2 1330.5,2948C 1324.21,2931.34 1319.88,2914.18 1317.5,2896.5C 1322.52,2896.02 1327.52,2895.35 1332.5,2894.5C 1335.11,2894.56 1337.28,2895.56 1339,2897.5C 1340.17,2903.87 1341.51,2910.2 1343,2916.5C 1343.96,2917.89 1345.29,2918.56 1347,2918.5C 1366.53,2913.41 1386.03,2908.24 1405.5,2903C 1405.99,2894.43 1406.99,2885.93 1408.5,2877.5 Z M 1730.5,2986.5 C 1792.84,3022.65 1859.17,3049.49 1929.5,3067C 2011.95,3086.96 2095.62,3096.46 2180.5,3095.5C 2180.5,3164.17 2180.5,3232.83 2180.5,3301.5C 2155.31,3302.65 2129.81,3301.98 2104,3299.5C 2046.09,3299.1 1988.92,3290.93 1932.5,3275C 1919.19,3269.7 1905.85,3264.37 1892.5,3259C 1869.83,3248 1847.17,3237 1824.5,3226C 1792.94,3209.55 1761.61,3192.55 1730.5,3175C 1729.81,3173.93 1729.31,3172.77 1729,3171.5C 1722.58,3110.02 1723.08,3048.36 1730.5,2986.5 Z M 2930.5,2992.5 C 2933.56,2992.14 2936.23,2992.98 2938.5,2995C 2953.56,3008.81 2966.23,3024.48 2976.5,3042C 2972.7,3048.3 2967.7,3053.46 2961.5,3057.5C 2957.76,3052.37 2954.26,3047.04 2951,3041.5C 2946.47,3036.31 2941.97,3031.14 2937.5,3026C 2935.83,3025.33 2934.17,3025.33 2932.5,3026C 2928.17,3032.49 2922.84,3037.99 2916.5,3042.5C 2911.84,3037.67 2907.34,3032.67 2903,3027.5C 2902.33,3025.83 2902.33,3024.17 2903,3022.5C 2912.34,3012.66 2921.51,3002.66 2930.5,2992.5 Z M 2644.5,3009.5 C 2645.12,3009.61 2645.62,3009.94 2646,3010.5C 2648.89,3073.96 2647.23,3137.3 2641,3200.5C 2640.73,3202.33 2639.89,3203.83 2638.5,3205C 2618.65,3220.09 2597.65,3233.43 2575.5,3245C 2565.32,3249.06 2554.98,3252.73 2544.5,3256C 2494.65,3265.41 2444.98,3275.74 2395.5,3287C 2340.36,3293.21 2285.36,3297.71 2230.5,3300.5C 2221.28,3299.95 2212.28,3299.95 2203.5,3300.5C 2203.17,3232.26 2203.5,3164.1 2204.5,3096C 2296,3089.13 2387,3077.8 2477.5,3062C 2535.64,3051.78 2591.31,3034.28 2644.5,3009.5 Z M 2898.5,3061.5 C 2903.27,3061.19 2907.93,3061.69 2912.5,3063C 2940.14,3076.82 2967.8,3090.65 2995.5,3104.5C 2996.61,3105.72 2996.78,3107.06 2996,3108.5C 2993.45,3114.66 2990.62,3120.66 2987.5,3126.5C 2970.39,3118.45 2953.72,3109.61 2937.5,3100C 2929.4,3095.61 2921.06,3091.78 2912.5,3088.5C 2909.22,3089.05 2906.72,3090.72 2905,3093.5C 2898.83,3107.84 2892.16,3121.84 2885,3135.5C 2882.84,3139.37 2879.67,3140.87 2875.5,3140C 2871.67,3135.5 2867.83,3131 2864,3126.5C 2863.33,3125.17 2863.33,3123.83 2864,3122.5C 2868.05,3118.75 2871.38,3114.41 2874,3109.5C 2880.39,3094.38 2887.06,3079.38 2894,3064.5C 2895.41,3063.22 2896.91,3062.22 2898.5,3061.5 Z M 1469.5,3082.5 C 1476.22,3082.34 1482.72,3083.34 1489,3085.5C 1490.12,3092.75 1492.12,3099.75 1495,3106.5C 1505.52,3127.54 1516.02,3148.54 1526.5,3169.5C 1525.33,3175.18 1522.33,3179.68 1517.5,3183C 1505.12,3192.36 1491.45,3199.36 1476.5,3204C 1458.31,3208.37 1440.81,3206.54 1424,3198.5C 1423.33,3195.83 1423.33,3193.17 1424,3190.5C 1424.76,3186 1426.26,3181.84 1428.5,3178C 1434.66,3179.89 1441,3181.56 1447.5,3183C 1466.24,3186.3 1482.74,3181.8 1497,3169.5C 1498.42,3166.97 1498.75,3164.3 1498,3161.5C 1491.58,3149.66 1485.41,3137.66 1479.5,3125.5C 1478.76,3124.71 1477.92,3124.05 1477,3123.5C 1445.39,3142.15 1413.89,3160.98 1382.5,3180C 1380.83,3180.67 1379.17,3180.67 1377.5,3180C 1374.05,3174.3 1371.38,3168.3 1369.5,3162C 1369.79,3160.11 1370.79,3158.78 1372.5,3158C 1401.63,3141.93 1430.63,3125.6 1459.5,3109C 1460.83,3108.33 1462.17,3108.33 1463.5,3109C 1466.17,3111.34 1469.17,3113.17 1472.5,3114.5C 1473.63,3112.93 1473.8,3111.26 1473,3109.5C 1468.71,3100.88 1467.54,3091.88 1469.5,3082.5 Z M 2743.5,3150.5 C 2745.03,3150.52 2745.53,3151.18 2745,3152.5C 2719.72,3190.29 2690.89,3225.29 2658.5,3257.5C 2658.67,3243.46 2660.17,3229.46 2663,3215.5C 2690.02,3193.97 2716.85,3172.3 2743.5,3150.5 Z M 1655.5,3154.5 C 1671.86,3165.51 1688.53,3176.18 1705.5,3186.5C 1709.22,3199.79 1711.05,3213.12 1711,3226.5C 1708.36,3224.2 1705.69,3221.86 1703,3219.5C 1688.18,3201.19 1673.85,3182.53 1660,3163.5C 1658.47,3160.45 1656.97,3157.45 1655.5,3154.5 Z M 2861.5,3155.5 C 2863.29,3155.21 2864.95,3155.55 2866.5,3156.5C 2878.86,3170.55 2888.69,3186.21 2896,3203.5C 2897.53,3206.72 2898.19,3210.05 2898,3213.5C 2893.92,3216.13 2889.75,3218.63 2885.5,3221C 2883.56,3221.74 2881.73,3221.58 2880,3220.5C 2875.64,3208.72 2870.14,3197.56 2863.5,3187C 2861.83,3186.33 2860.17,3186.33 2858.5,3187C 2853.13,3191.02 2847.46,3194.52 2841.5,3197.5C 2839.97,3197.47 2838.8,3196.8 2838,3195.5C 2835.33,3190.83 2832.67,3186.17 2830,3181.5C 2829.26,3179.56 2829.42,3177.73 2830.5,3176C 2838.33,3171.58 2846,3166.92 2853.5,3162C 2856.42,3160.05 2859.09,3157.89 2861.5,3155.5 Z M 1544.5,3182.5 C 1546.14,3182.29 1547.64,3182.62 1549,3183.5C 1551.17,3187 1553.33,3190.5 1555.5,3194C 1549.73,3197.7 1543.73,3201.04 1537.5,3204C 1533.53,3205.77 1529.53,3207.1 1525.5,3208C 1522.9,3205.68 1522.07,3202.85 1523,3199.5C 1530.51,3194.18 1537.68,3188.51 1544.5,3182.5 Z M 1732.5,3203.5 C 1782.16,3230 1832.49,3255.5 1883.5,3280C 1919.15,3295.44 1956.15,3306.44 1994.5,3313C 2055.81,3322.6 2117.48,3326.6 2179.5,3325C 2180.5,3366.76 2180.83,3408.59 2180.5,3450.5C 2078.92,3447.91 1983.59,3422.41 1894.5,3374C 1837.97,3343.15 1786.8,3304.98 1741,3259.5C 1736.69,3241.1 1733.85,3222.43 1732.5,3203.5 Z M 1559.5,3206.5 C 1562.78,3206.27 1565.28,3207.6 1567,3210.5C 1567.62,3212.12 1568.62,3213.45 1570,3214.5C 1570.78,3215.94 1570.61,3217.28 1569.5,3218.5C 1559.67,3223.61 1549.33,3226.78 1538.5,3228C 1536.91,3226.16 1535.58,3224.16 1534.5,3222C 1534.76,3220.74 1535.43,3219.74 1536.5,3219C 1544.84,3215.84 1552.5,3211.67 1559.5,3206.5 Z M 2634.5,3235.5 C 2635.75,3236.33 2636.41,3237.67 2636.5,3239.5C 2634.75,3254.99 2632.25,3270.33 2629,3285.5C 2510.98,3389.88 2372.65,3445.21 2214,3451.5C 2210.58,3451.48 2207.25,3451.15 2204,3450.5C 2203.17,3408.6 2203.34,3366.76 2204.5,3325C 2266.31,3322.32 2327.98,3317.66 2389.5,3311C 2442.86,3299.99 2496.19,3288.99 2549.5,3278C 2580.98,3269.59 2609.32,3255.42 2634.5,3235.5 Z M 1579.5,3245.5 C 1581.14,3245.29 1582.64,3245.62 1584,3246.5C 1585.33,3249.83 1586.67,3253.17 1588,3256.5C 1597.04,3266.54 1605.71,3276.87 1614,3287.5C 1618.39,3291.89 1622.72,3296.22 1627,3300.5C 1631.8,3308.29 1631.47,3315.96 1626,3323.5C 1605.27,3345.89 1584.93,3368.56 1565,3391.5C 1563.59,3393.41 1561.75,3394.75 1559.5,3395.5C 1554.88,3392.05 1550.71,3388.05 1547,3383.5C 1546.37,3381.36 1546.7,3379.36 1548,3377.5C 1565.63,3358.2 1583.63,3339.2 1602,3320.5C 1605.18,3316.13 1605.18,3311.8 1602,3307.5C 1590.96,3295.46 1580.29,3283.13 1570,3270.5C 1564.31,3263.58 1563.14,3256.08 1566.5,3248C 1571.08,3247.73 1575.41,3246.9 1579.5,3245.5 Z M 2791.5,3267.5 C 2794.12,3267.23 2796.62,3267.56 2799,3268.5C 2807.66,3285.82 2814.66,3303.82 2820,3322.5C 2821.07,3323.19 2822.23,3323.69 2823.5,3324C 2833.83,3324.33 2844.17,3324.67 2854.5,3325C 2855.91,3331.71 2856.58,3338.55 2856.5,3345.5C 2827.7,3345.73 2798.87,3344.4 2770,3341.5C 2768.24,3341.54 2766.57,3341.88 2765,3342.5C 2773.1,3356.32 2781.76,3369.98 2791,3383.5C 2794,3389.17 2797,3394.83 2800,3400.5C 2800.67,3402.17 2800.67,3403.83 2800,3405.5C 2795.92,3410.09 2791.42,3414.09 2786.5,3417.5C 2771.92,3392.37 2757.26,3367.04 2742.5,3341.5C 2741.09,3340.19 2739.42,3339.36 2737.5,3339C 2733.17,3338.77 2729.01,3337.94 2725,3336.5C 2723.99,3330.2 2723.49,3323.87 2723.5,3317.5C 2745.95,3318.48 2768.45,3320.15 2791,3322.5C 2795.42,3323.33 2797.42,3321.66 2797,3317.5C 2793.67,3308.83 2790.33,3300.17 2787,3291.5C 2786.31,3290.64 2785.48,3289.98 2784.5,3289.5C 2780.86,3290.25 2777.2,3290.91 2773.5,3291.5C 2772.45,3291.32 2771.45,3290.99 2770.5,3290.5C 2768.98,3285.71 2767.64,3280.88 2766.5,3276C 2766.35,3273.97 2767.02,3272.3 2768.5,3271C 2776.37,3270.22 2784.04,3269.05 2791.5,3267.5 Z M 1538.5,3282.5 C 1539.55,3282.35 1540.55,3282.52 1541.5,3283C 1544.55,3286.93 1547.71,3290.76 1551,3294.5C 1551.71,3296.97 1551.37,3299.3 1550,3301.5C 1536.87,3312.97 1524.03,3324.8 1511.5,3337C 1509.96,3338.19 1508.29,3338.52 1506.5,3338C 1502.83,3333 1499.17,3328 1495.5,3323C 1497.46,3320.04 1499.79,3317.37 1502.5,3315C 1515.14,3304.85 1527.14,3294.02 1538.5,3282.5 Z M 1651.5,3324.5 C 1652.87,3324.34 1654.21,3324.51 1655.5,3325C 1656.81,3327.94 1658.31,3330.77 1660,3333.5C 1671.73,3344.38 1683.73,3355.05 1696,3365.5C 1698.97,3370.63 1699.31,3375.97 1697,3381.5C 1678.83,3408.52 1660.16,3435.18 1641,3461.5C 1639.97,3463.36 1638.47,3464.69 1636.5,3465.5C 1631.63,3462.89 1627.29,3459.56 1623.5,3455.5C 1622.52,3453.9 1622.35,3452.24 1623,3450.5C 1638.33,3429.83 1653.67,3409.17 1669,3388.5C 1672.53,3384.19 1673.2,3379.53 1671,3374.5C 1662.46,3366.3 1653.63,3358.46 1644.5,3351C 1640.11,3347.06 1637.11,3342.22 1635.5,3336.5C 1636.17,3335.5 1636.83,3334.5 1637.5,3333.5C 1642.21,3330.44 1646.87,3327.44 1651.5,3324.5 Z M 2681.5,3361.5 C 2684.93,3361.55 2687.93,3362.71 2690.5,3365C 2713.92,3385.09 2737.92,3404.43 2762.5,3423C 2764.41,3424.41 2765.75,3426.25 2766.5,3428.5C 2763.83,3434.17 2761.17,3439.83 2758.5,3445.5C 2757.83,3445.83 2757.17,3446.17 2756.5,3446.5C 2748.36,3440.25 2740.36,3433.75 2732.5,3427C 2730.95,3425.71 2729.28,3425.04 2727.5,3425C 2726.98,3425.56 2726.64,3426.23 2726.5,3427C 2727.86,3440.82 2728.86,3454.66 2729.5,3468.5C 2728.96,3469.75 2728.29,3470.91 2727.5,3472C 2720.82,3472.45 2714.16,3472.95 2707.5,3473.5C 2707.92,3457.09 2707.26,3440.76 2705.5,3424.5C 2706.09,3423.2 2707.09,3422.37 2708.5,3422C 2713.1,3421.89 2717.44,3420.89 2721.5,3419C 2710.22,3408.39 2698.89,3397.72 2687.5,3387C 2685.65,3386.16 2683.82,3385.33 2682,3384.5C 2677.07,3386.7 2672.07,3388.7 2667,3390.5C 2666,3389.83 2665,3389.17 2664,3388.5C 2661.86,3382.27 2660.52,3375.93 2660,3369.5C 2667.19,3366.65 2674.35,3363.98 2681.5,3361.5 Z M 1727.5,3393.5 C 1729.53,3393.34 1731.53,3393.5 1733.5,3394C 1734.13,3394.75 1734.63,3395.58 1735,3396.5C 1738.36,3420.15 1741.53,3443.81 1744.5,3467.5C 1746.65,3467.63 1748.65,3467.13 1750.5,3466C 1756.39,3461.11 1762.55,3456.61 1769,3452.5C 1769.78,3451.27 1770.28,3449.94 1770.5,3448.5C 1768.53,3443.65 1767.7,3438.65 1768,3433.5C 1772.98,3430.84 1777.98,3428.17 1783,3425.5C 1784.48,3426.44 1785.48,3427.78 1786,3429.5C 1788.54,3438.28 1791.37,3446.94 1794.5,3455.5C 1793.97,3457.61 1792.97,3459.45 1791.5,3461C 1777.95,3471.55 1764.11,3481.72 1750,3491.5C 1750.3,3502.96 1751.8,3514.29 1754.5,3525.5C 1754.17,3526.5 1753.83,3527.5 1753.5,3528.5C 1748.15,3530.88 1742.65,3532.88 1737,3534.5C 1736.23,3534.36 1735.56,3534.02 1735,3533.5C 1729.18,3502.26 1724.18,3470.93 1720,3439.5C 1709.06,3451.78 1698.06,3464.12 1687,3476.5C 1681.97,3481.87 1676.63,3486.87 1671,3491.5C 1664.76,3488.09 1659.26,3483.75 1654.5,3478.5C 1675.46,3458.37 1695.96,3437.71 1716,3416.5C 1716.87,3415.13 1717.37,3413.63 1717.5,3412C 1716.49,3407.53 1716.32,3403.03 1717,3398.5C 1720.46,3396.53 1723.96,3394.86 1727.5,3393.5 Z M 2607.5,3404.5 C 2618.75,3404.18 2629.91,3404.51 2641,3405.5C 2658.17,3433.17 2675.83,3460.51 2694,3487.5C 2696.24,3491.12 2695.41,3493.95 2691.5,3496C 2688.48,3497.51 2685.81,3499.51 2683.5,3502C 2681.56,3502.74 2679.73,3502.58 2678,3501.5C 2662.58,3477 2647.42,3452.33 2632.5,3427.5C 2624.27,3426.81 2616.1,3426.47 2608,3426.5C 2607.5,3419.17 2607.33,3411.84 2607.5,3404.5 Z M 2574.5,3427.5 C 2576.2,3427.34 2577.87,3427.51 2579.5,3428C 2583.92,3430.63 2588.42,3433.13 2593,3435.5C 2593.67,3437.5 2593.67,3439.5 2593,3441.5C 2590.72,3445.72 2587.72,3449.38 2584,3452.5C 2583.33,3454.17 2583.33,3455.83 2584,3457.5C 2598.22,3483.45 2612.06,3509.61 2625.5,3536C 2625.36,3536.77 2625.02,3537.44 2624.5,3538C 2620.01,3540.08 2615.67,3542.41 2611.5,3545C 2608.2,3546.04 2606.03,3544.88 2605,3541.5C 2592.79,3515.58 2579.96,3490.08 2566.5,3465C 2564.45,3464.68 2562.45,3465.01 2560.5,3466C 2550.96,3470.94 2541.29,3475.61 2531.5,3480C 2526.5,3480.67 2521.5,3480.67 2516.5,3480C 2514.9,3478.93 2513.9,3477.43 2513.5,3475.5C 2513.89,3469.42 2515.22,3463.58 2517.5,3458C 2521.92,3457.79 2526.25,3457.13 2530.5,3456C 2536.89,3452.14 2543.55,3448.81 2550.5,3446C 2555.56,3442.63 2560.89,3439.63 2566.5,3437C 2569.75,3434.25 2572.42,3431.09 2574.5,3427.5 Z M 1830.5,3450.5 C 1834.13,3451.61 1837.13,3453.77 1839.5,3457C 1849.71,3461.94 1860.05,3466.61 1870.5,3471C 1874.57,3472.9 1876.9,3476.07 1877.5,3480.5C 1876.03,3487.73 1873.87,3494.73 1871,3501.5C 1863.17,3520.99 1855.34,3540.49 1847.5,3560C 1847.9,3561.47 1848.57,3562.81 1849.5,3564C 1852.42,3565.53 1855.42,3566.86 1858.5,3568C 1859.57,3568.74 1860.24,3569.74 1860.5,3571C 1857.46,3577.53 1853.46,3583.37 1848.5,3588.5C 1821.87,3578.02 1795.87,3566.19 1770.5,3553C 1768.83,3552 1767.5,3550.67 1766.5,3549C 1769.33,3545.5 1772.17,3542 1775,3538.5C 1776.77,3536.23 1778.93,3534.56 1781.5,3533.5C 1795.19,3540.01 1808.86,3546.51 1822.5,3553C 1824.22,3553.35 1825.88,3553.85 1827.5,3554.5C 1828.09,3554.29 1828.59,3553.96 1829,3553.5C 1837.96,3533.58 1845.8,3513.25 1852.5,3492.5C 1852.59,3490.09 1851.59,3488.26 1849.5,3487C 1841.12,3483.2 1832.78,3479.2 1824.5,3475C 1818.88,3471.27 1816.38,3466.1 1817,3459.5C 1821.82,3456.85 1826.32,3453.85 1830.5,3450.5 Z M 2480.5,3477.5 C 2487.5,3476.92 2493.33,3479.25 2498,3484.5C 2510,3513.83 2522,3543.17 2534,3572.5C 2535.32,3575.41 2535.65,3578.41 2535,3581.5C 2529.59,3585.15 2523.76,3586.82 2517.5,3586.5C 2507.9,3561.54 2498.4,3536.54 2489,3511.5C 2486.93,3507.76 2483.93,3505.1 2480,3503.5C 2468.91,3507.53 2457.74,3511.36 2446.5,3515C 2445.1,3516.06 2444.1,3517.39 2443.5,3519C 2452.56,3546.44 2461.06,3573.94 2469,3601.5C 2468.17,3602.33 2467.33,3603.17 2466.5,3604C 2460.93,3605.78 2455.6,3608.12 2450.5,3611C 2443.94,3613.96 2437.27,3616.3 2430.5,3618C 2428.77,3611.25 2427.6,3604.41 2427,3597.5C 2427.31,3596.69 2427.81,3596.03 2428.5,3595.5C 2433.25,3593.69 2437.92,3591.69 2442.5,3589.5C 2443.55,3588.56 2444.22,3587.4 2444.5,3586C 2438.13,3565.22 2431.96,3544.39 2426,3523.5C 2419.91,3522.69 2413.75,3522.19 2407.5,3522C 2406.33,3521.58 2405.33,3520.91 2404.5,3520C 2405.74,3513.15 2407.24,3506.31 2409,3499.5C 2416.89,3498.99 2424.72,3497.83 2432.5,3496C 2448.97,3490.73 2464.97,3484.56 2480.5,3477.5 Z M 1972.5,3504.5 C 1976.48,3503.97 1979.48,3505.47 1981.5,3509C 1997.06,3513.68 2012.89,3517.18 2029,3519.5C 2036.25,3516.38 2041.25,3518.38 2044,3525.5C 2044.77,3529.14 2045.93,3532.64 2047.5,3536C 2047.11,3538.46 2045.78,3540.13 2043.5,3541C 2038.83,3541.67 2034.17,3542.33 2029.5,3543C 2028.87,3543.75 2028.37,3544.58 2028,3545.5C 2022.61,3574.87 2017.11,3604.2 2011.5,3633.5C 2005.36,3634.9 1999.36,3634.4 1993.5,3632C 1992.83,3631 1992.17,3630 1991.5,3629C 1998.46,3599.71 2004.3,3570.21 2009,3540.5C 1997.24,3537.27 1985.41,3534.1 1973.5,3531C 1967.42,3528.63 1963.09,3524.46 1960.5,3518.5C 1964.12,3513.54 1968.12,3508.88 1972.5,3504.5 Z M 2069.5,3516.5 C 2072.52,3516.8 2075.52,3517.3 2078.5,3518C 2079.08,3518.89 2079.41,3519.89 2079.5,3521C 2077,3531.17 2073.33,3540.84 2068.5,3550C 2065.15,3551.21 2062.82,3550.21 2061.5,3547C 2062.77,3537.51 2064.27,3528.01 2066,3518.5C 2067.3,3517.92 2068.47,3517.25 2069.5,3516.5 Z M 2092.5,3519.5 C 2095.19,3519.34 2097.85,3519.5 2100.5,3520C 2102.65,3520.26 2104.32,3521.26 2105.5,3523C 2101.2,3532.44 2097.03,3541.94 2093,3551.5C 2090.5,3553.48 2087.67,3553.98 2084.5,3553C 2083.42,3551.27 2083.26,3549.44 2084,3547.5C 2086.54,3538.04 2089.38,3528.71 2092.5,3519.5 Z M 2315.5,3519.5 C 2317.73,3520.23 2319.57,3521.56 2321,3523.5C 2324,3527.17 2327,3530.83 2330,3534.5C 2330.25,3539.28 2328.25,3542.95 2324,3545.5C 2322.99,3547.53 2322.49,3549.7 2322.5,3552C 2326.2,3577.59 2330.37,3603.09 2335,3628.5C 2335.67,3631.83 2335.67,3635.17 2335,3638.5C 2328.83,3641.14 2322.5,3641.81 2316,3640.5C 2311.99,3610.76 2307.65,3581.09 2303,3551.5C 2302.26,3550.43 2301.26,3549.76 2300,3549.5C 2286.27,3551.34 2272.6,3553.34 2259,3555.5C 2260.17,3584.89 2262.34,3614.22 2265.5,3643.5C 2265.45,3645.1 2265.12,3646.6 2264.5,3648C 2258.85,3649.26 2253.19,3649.93 2247.5,3650C 2246,3648.51 2245.16,3646.68 2245,3644.5C 2243.19,3615.81 2241.19,3587.15 2239,3558.5C 2238.69,3557.69 2238.19,3557.03 2237.5,3556.5C 2233.17,3555.34 2229.17,3553.5 2225.5,3551C 2224.43,3549.69 2223.76,3548.19 2223.5,3546.5C 2225.56,3541.38 2227.89,3536.38 2230.5,3531.5C 2231.44,3530.45 2232.6,3529.78 2234,3529.5C 2238.35,3531.21 2242.85,3532.21 2247.5,3532.5C 2267.59,3530.62 2287.59,3528.12 2307.5,3525C 2310.76,3523.88 2313.42,3522.05 2315.5,3519.5 Z M 2136.5,3531.5 C 2151.69,3534.71 2166.53,3535.71 2181,3534.5C 2184.6,3535.13 2187.6,3536.8 2190,3539.5C 2191.26,3549.43 2191.92,3559.43 2192,3569.5C 2192.43,3589.27 2192.6,3608.94 2192.5,3628.5C 2197.76,3628.2 2202.93,3628.53 2208,3629.5C 2207.46,3635.12 2206.79,3640.78 2206,3646.5C 2205.73,3648.33 2204.89,3649.83 2203.5,3651C 2196.22,3652.07 2188.89,3652.57 2181.5,3652.5C 2159.82,3651.98 2138.15,3651.14 2116.5,3650C 2115.58,3649.63 2114.75,3649.13 2114,3648.5C 2115.26,3641.62 2117.43,3634.96 2120.5,3628.5C 2135.4,3627.68 2150.23,3628.01 2165,3629.5C 2167.33,3628.83 2169.67,3628.17 2172,3627.5C 2172.17,3610.59 2172.67,3593.76 2173.5,3577C 2172.69,3571.92 2172.19,3566.75 2172,3561.5C 2170.68,3559.51 2168.85,3558.35 2166.5,3558C 2156.78,3557.86 2147.12,3557.19 2137.5,3556C 2132.57,3554.39 2128.9,3551.39 2126.5,3547C 2129.46,3541.58 2132.79,3536.42 2136.5,3531.5 Z"/></g>
<g><path style="opacity:0.844" fill="#fefefe" d="M 1665.5,761.5 C 1677.04,763.583 1681.21,770.25 1678,781.5C 1677.22,783.286 1676.05,784.786 1674.5,786C 1670.4,788.09 1666.07,789.256 1661.5,789.5C 1661.33,780.827 1661.5,772.16 1662,763.5C 1663.3,762.915 1664.47,762.249 1665.5,761.5 Z"/></g>
<g><path style="opacity:0.94" fill="#fefefe" d="M 2146.5,761.5 C 2161.84,761.668 2171.01,769.334 2174,784.5C 2175.32,793.799 2174.32,802.799 2171,811.5C 2164.63,820.881 2156.13,823.714 2145.5,820C 2144.87,819.25 2144.37,818.416 2144,817.5C 2143.33,801.5 2143.33,785.5 2144,769.5C 2144.12,766.496 2144.95,763.829 2146.5,761.5 Z"/></g>
<g><path style="opacity:0.906" fill="#fefefe" d="M 2336.5,761.5 C 2348.16,762.672 2352.66,769.006 2350,780.5C 2349.65,782.848 2348.49,784.681 2346.5,786C 2342.43,788.115 2338.1,789.281 2333.5,789.5C 2333.5,780.5 2333.5,771.5 2333.5,762.5C 2334.79,762.737 2335.79,762.404 2336.5,761.5 Z"/></g>
<g><path style="opacity:0.932" fill="#fefefe" d="M 2637.5,761.5 C 2644.62,762.108 2650.12,765.442 2654,771.5C 2658.96,785.667 2658.63,799.667 2653,813.5C 2644.58,824.67 2635.91,825.003 2627,814.5C 2620.44,800.819 2619.77,786.819 2625,772.5C 2628.15,767.509 2632.31,763.843 2637.5,761.5 Z"/></g>
<g><path style="opacity:0.872" fill="#fefefe" d="M 2711.5,761.5 C 2720.95,761.122 2725.62,765.622 2725.5,775C 2724.9,786.94 2718.73,792.44 2707,791.5C 2706.33,782.167 2706.33,772.833 2707,763.5C 2708.62,762.901 2710.12,762.234 2711.5,761.5 Z"/></g>
<g><path style="opacity:0.941" fill="#fefefe" d="M 2864.5,761.5 C 2875.25,762.747 2881.75,768.747 2884,779.5C 2884.67,787.833 2884.67,796.167 2884,804.5C 2882.03,814.303 2876.2,820.303 2866.5,822.5C 2860.79,821.625 2856.63,818.625 2854,813.5C 2848.81,800.79 2848.14,787.79 2852,774.5C 2854.38,768.29 2858.55,763.957 2864.5,761.5 Z"/></g>
<g><path style="opacity:0.872" fill="#fefefe" d="M 2005.5,762.5 C 2014.7,760.588 2019.7,764.254 2020.5,773.5C 2020.23,783.938 2014.9,789.105 2004.5,789C 2003.94,788.275 2003.61,787.442 2003.5,786.5C 2003.53,780.261 2003.69,773.928 2004,767.5C 2004.35,765.753 2004.85,764.086 2005.5,762.5 Z"/></g>
<g><path style="opacity:0.765" fill="#fefefe" d="M 1934.5,779.5 C 1935.79,780.058 1936.62,781.058 1937,782.5C 1939.3,787.739 1940.97,793.072 1942,798.5C 1936.93,799.471 1931.76,799.805 1926.5,799.5C 1928.61,792.62 1931.27,785.953 1934.5,779.5 Z"/></g>
<g><path style="opacity:0.768" fill="#fefefe" d="M 2072.5,779.5 C 2074.34,780.122 2075.5,781.456 2076,783.5C 2077.7,788.403 2079.54,793.237 2081.5,798C 2081.17,798.333 2080.83,798.667 2080.5,799C 2075.14,799.829 2069.8,799.663 2064.5,798.5C 2067.46,792.256 2070.12,785.923 2072.5,779.5 Z"/></g>
<g><path style="opacity:0.779" fill="#fefefe" d="M 2407.5,780.5 C 2409.02,780.511 2410.18,781.177 2411,782.5C 2413.08,787.575 2415.24,792.575 2417.5,797.5C 2417.29,798.086 2416.96,798.586 2416.5,799C 2411.18,799.499 2405.84,799.666 2400.5,799.5C 2403.03,793.255 2405.36,786.922 2407.5,780.5 Z"/></g>
<g><path style="opacity:0.867" fill="#fefefe" d="M 2005.5,791.5 C 2016.94,790.717 2022.6,796.05 2022.5,807.5C 2021.56,818.426 2015.56,823.092 2004.5,821.5C 2003.49,812.523 2003.32,803.523 2004,794.5C 2004.51,793.473 2005.01,792.473 2005.5,791.5 Z"/></g>
<g><path style="opacity:0.968" fill="#fefefe" d="M 2714.5,1307.5 C 2716.99,1307.3 2719.32,1307.8 2721.5,1309C 2750.62,1326.97 2779.12,1345.8 2807,1365.5C 2808.4,1365.22 2809.56,1364.55 2810.5,1363.5C 2814.76,1357.07 2819.6,1351.07 2825,1345.5C 2827.36,1342.4 2826.86,1339.9 2823.5,1338C 2818.83,1335.67 2814.17,1333.33 2809.5,1331C 2808.31,1329.98 2807.31,1328.81 2806.5,1327.5C 2813.39,1320.44 2820.72,1313.94 2828.5,1308C 2830.17,1307.33 2831.83,1307.33 2833.5,1308C 2848.9,1315.7 2864.23,1323.36 2879.5,1331C 2881.66,1332.76 2881.83,1334.6 2880,1336.5C 2866.87,1353.96 2853.37,1371.13 2839.5,1388C 2841.11,1390.62 2843.11,1392.95 2845.5,1395C 2854.68,1401.09 2863.68,1407.42 2872.5,1414C 2874.33,1415.11 2875.16,1416.61 2875,1418.5C 2867.45,1425.05 2859.62,1431.21 2851.5,1437C 2849.5,1437.67 2847.5,1437.67 2845.5,1437C 2813.11,1411.27 2779.61,1387.1 2745,1364.5C 2744.23,1364.64 2743.56,1364.98 2743,1365.5C 2737.24,1388.56 2730.24,1411.22 2722,1433.5C 2720.33,1434.17 2718.67,1434.83 2717,1435.5C 2704.71,1434.88 2692.55,1434.54 2680.5,1434.5C 2679.37,1432.93 2679.2,1431.26 2680,1429.5C 2691.12,1400.96 2700.96,1371.96 2709.5,1342.5C 2708.87,1340.74 2707.87,1339.24 2706.5,1338C 2701.5,1335 2696.5,1332 2691.5,1329C 2690.45,1327.61 2690.28,1326.11 2691,1324.5C 2699.29,1319.36 2707.13,1313.69 2714.5,1307.5 Z"/></g>
<g><path style="opacity:0.974" fill="#fdfdfd" d="M 1591.5,1309.5 C 1609.52,1315.56 1627.52,1321.73 1645.5,1328C 1646.13,1328.75 1646.63,1329.58 1647,1330.5C 1647.67,1367.17 1647.67,1403.83 1647,1440.5C 1646.25,1441.13 1645.42,1441.63 1644.5,1442C 1636.05,1441.57 1627.55,1441.74 1619,1442.5C 1615.5,1442.33 1612,1442.17 1608.5,1442C 1607.58,1441.63 1606.75,1441.13 1606,1440.5C 1605.67,1409.5 1605.33,1378.5 1605,1347.5C 1603.2,1345.68 1601.03,1344.52 1598.5,1344C 1588.13,1341.16 1577.79,1338.16 1567.5,1335C 1566.57,1334.61 1565.91,1333.95 1565.5,1333C 1573.45,1324.21 1582.12,1316.37 1591.5,1309.5 Z"/></g>
<g><path style="opacity:0.97" fill="#fefefe" d="M 2728.5,1492.5 C 2734.36,1495.72 2740.69,1497.55 2747.5,1498C 2772.5,1498.33 2797.5,1498.67 2822.5,1499C 2831.15,1499.98 2835.65,1504.82 2836,1513.5C 2836.33,1539.5 2836.67,1565.5 2837,1591.5C 2837.8,1592.8 2838.97,1593.47 2840.5,1593.5C 2847.19,1593.16 2853.86,1592.83 2860.5,1592.5C 2862.03,1592.53 2863.2,1593.2 2864,1594.5C 2862.46,1602.32 2860.12,1609.98 2857,1617.5C 2856.17,1618.33 2855.33,1619.17 2854.5,1620C 2801.5,1620.67 2748.5,1620.67 2695.5,1620C 2694.45,1618.61 2694.28,1617.11 2695,1615.5C 2698.27,1609.29 2701.27,1602.95 2704,1596.5C 2705.01,1594.74 2706.51,1593.57 2708.5,1593C 2735.71,1592.59 2762.88,1592.75 2790,1593.5C 2791.33,1592.83 2792.67,1592.17 2794,1591.5C 2794.98,1570.41 2794.64,1549.41 2793,1528.5C 2791.83,1527.11 2790.33,1526.27 2788.5,1526C 2768.83,1525.67 2749.17,1525.33 2729.5,1525C 2720.6,1523.63 2712.43,1520.46 2705,1515.5C 2704.68,1514.09 2705.02,1512.76 2706,1511.5C 2713.13,1504.52 2720.63,1498.19 2728.5,1492.5 Z"/></g>
<g><path style="opacity:0.972" fill="#fdfdfd" d="M 1579.5,1499.5 C 1591.31,1502.36 1603.31,1504.36 1615.5,1505.5C 1627.52,1504.93 1639.68,1503.93 1652,1502.5C 1658.34,1501.55 1660.01,1503.88 1657,1509.5C 1653.82,1515.2 1650.65,1520.87 1647.5,1526.5C 1642.52,1528.55 1637.69,1530.88 1633,1533.5C 1632.67,1562.5 1632.33,1591.5 1632,1620.5C 1631.5,1621 1631,1621.5 1630.5,1622C 1618.28,1624.26 1606.11,1626.76 1594,1629.5C 1592.67,1629.25 1591.67,1628.58 1591,1627.5C 1590.59,1611.12 1590.76,1594.95 1591.5,1579C 1590.84,1563.56 1590.17,1548.06 1589.5,1532.5C 1579.04,1531.05 1569.04,1528.05 1559.5,1523.5C 1558.71,1522.76 1558.05,1521.92 1557.5,1521C 1564.73,1513.6 1572.06,1506.44 1579.5,1499.5 Z"/></g>
<g><path style="opacity:0.967" fill="#fefefe" d="M 2751.5,1674.5 C 2769.45,1678.06 2787.28,1682.06 2805,1686.5C 2817.78,1720.06 2831.11,1753.39 2845,1786.5C 2846.77,1790.31 2847.61,1794.31 2847.5,1798.5C 2836.02,1801.04 2824.69,1804.2 2813.5,1808C 2811.5,1808.67 2809.5,1808.67 2807.5,1808C 2803.26,1796.89 2799.09,1785.72 2795,1774.5C 2793.51,1772.18 2791.68,1772.01 2789.5,1774C 2776.59,1786.92 2763.09,1799.09 2749,1810.5C 2737.78,1806.14 2726.61,1801.64 2715.5,1797C 2714.25,1795.54 2714.25,1794.04 2715.5,1792.5C 2731.93,1777.91 2748.26,1763.07 2764.5,1748C 2771.81,1749.71 2779.14,1751.54 2786.5,1753.5C 2782.36,1738.89 2777.36,1724.56 2771.5,1710.5C 2770.33,1709.42 2769,1708.58 2767.5,1708C 2758.86,1706.2 2750.19,1704.54 2741.5,1703C 2738.82,1702.75 2736.49,1701.75 2734.5,1700C 2739.32,1690.83 2744.99,1682.33 2751.5,1674.5 Z"/></g>
<g><path style="opacity:0.971" fill="#fefefe" d="M 1519.5,1685.5 C 1528.49,1686.83 1537.49,1688.33 1546.5,1690C 1586.17,1690.67 1625.83,1690.67 1665.5,1690C 1670.96,1689.17 1676.3,1687.84 1681.5,1686C 1684.17,1685.33 1686.83,1685.33 1689.5,1686C 1696.94,1693.35 1704.27,1700.69 1711.5,1708C 1706.77,1713.37 1700.77,1716.7 1693.5,1718C 1692.67,1718.83 1691.83,1719.67 1691,1720.5C 1690.83,1750.84 1690.33,1781.17 1689.5,1811.5C 1676.2,1812.81 1662.87,1812.81 1649.5,1811.5C 1648.67,1780.88 1648.17,1750.21 1648,1719.5C 1647.25,1718.87 1646.42,1718.37 1645.5,1718C 1621.5,1717.33 1597.5,1717.33 1573.5,1718C 1573,1718.5 1572.5,1719 1572,1719.5C 1571.67,1750.17 1571.33,1780.83 1571,1811.5C 1557.58,1812.66 1544.08,1812.82 1530.5,1812C 1529.67,1781.57 1529.17,1751.07 1529,1720.5C 1528.1,1719.3 1526.93,1718.47 1525.5,1718C 1516.25,1716.71 1507.58,1713.71 1499.5,1709C 1498.45,1707.61 1498.28,1706.11 1499,1704.5C 1506.03,1698.3 1512.86,1691.97 1519.5,1685.5 Z"/></g>
<g><path style="opacity:0.982" fill="#fdfdfd" d="M 2711.5,1863.5 C 2718.08,1865.28 2724.75,1866.78 2731.5,1868C 2763.17,1868.67 2794.83,1868.67 2826.5,1868C 2832.19,1866.6 2837.86,1865.1 2843.5,1863.5C 2851.43,1869.58 2859.26,1875.91 2867,1882.5C 2867.67,1883.83 2867.67,1885.17 2867,1886.5C 2857.77,1891.27 2847.93,1894.1 2837.5,1895C 2835.67,1895.27 2834.17,1896.11 2833,1897.5C 2832.83,1928.74 2832.33,1959.91 2831.5,1991C 2818.5,1991.67 2805.5,1991.67 2792.5,1991C 2792,1990.5 2791.5,1990 2791,1989.5C 2790.83,1958.83 2790.33,1928.16 2789.5,1897.5C 2766.54,1896.68 2743.54,1896.18 2720.5,1896C 2711.4,1895.22 2702.73,1892.89 2694.5,1889C 2690.35,1887.59 2689.18,1885.09 2691,1881.5C 2698.32,1876.01 2705.16,1870.01 2711.5,1863.5 Z"/></g>
<g><path style="opacity:0.973" fill="#fefefe" d="M 1627.5,1866.5 C 1654.94,1870.62 1682.27,1875.45 1709.5,1881C 1713.01,1928.61 1693.01,1962.61 1649.5,1983C 1617.67,1994.89 1585,1999.39 1551.5,1996.5C 1544.86,1965.57 1538.36,1934.57 1532,1903.5C 1522.48,1899.21 1512.64,1895.71 1502.5,1893C 1501.48,1891.95 1501.32,1890.78 1502,1889.5C 1509.5,1883 1516.66,1876.17 1523.5,1869C 1525.03,1868.08 1526.7,1867.58 1528.5,1867.5C 1543.31,1871.82 1557.97,1876.66 1572.5,1882C 1577.61,1909.36 1582.11,1936.86 1586,1964.5C 1586.94,1966.95 1588.78,1967.95 1591.5,1967.5C 1610.5,1965.23 1627.83,1958.73 1643.5,1948C 1657.02,1937.31 1665.35,1923.48 1668.5,1906.5C 1668.42,1904.67 1667.59,1903.34 1666,1902.5C 1648.21,1899.23 1630.37,1896.23 1612.5,1893.5C 1612.34,1891.8 1612.51,1890.13 1613,1888.5C 1617.66,1881.01 1622.5,1873.68 1627.5,1866.5 Z"/></g>
<g><path style="opacity:0.971" fill="#fefefe" d="M 2711.5,2049.5 C 2718.36,2051.5 2725.36,2053 2732.5,2054C 2771.5,2054.33 2810.5,2054.67 2849.5,2055C 2858.31,2057.64 2864.48,2063.14 2868,2071.5C 2868.67,2106.17 2868.67,2140.83 2868,2175.5C 2854.58,2176.66 2841.08,2176.82 2827.5,2176C 2826.87,2175.25 2826.37,2174.42 2826,2173.5C 2825.19,2149.81 2825.35,2126.14 2826.5,2102.5C 2825.77,2097.53 2825.27,2092.53 2825,2087.5C 2823.16,2084.83 2820.66,2082.99 2817.5,2082C 2782.17,2081.67 2746.83,2081.33 2711.5,2081C 2702.93,2079.88 2695.6,2076.38 2689.5,2070.5C 2690.13,2068.74 2691.13,2067.24 2692.5,2066C 2699.32,2061.01 2705.65,2055.51 2711.5,2049.5 Z"/></g>
<g><path style="opacity:0.967" fill="#fdfdfd" d="M 1578.5,2050.5 C 1602.77,2057.82 1627.11,2064.99 1651.5,2072C 1652.29,2073.09 1652.96,2074.25 1653.5,2075.5C 1643.99,2093.85 1632.49,2110.85 1619,2126.5C 1613.83,2131 1608.67,2135.5 1603.5,2140C 1601.15,2140.17 1598.82,2139.84 1596.5,2139C 1588.05,2135.4 1579.38,2132.4 1570.5,2130C 1568.15,2128.81 1567.32,2126.98 1568,2124.5C 1579.96,2115.2 1589.8,2104.04 1597.5,2091C 1597.18,2089.35 1596.18,2088.35 1594.5,2088C 1582.69,2084.23 1570.69,2081.4 1558.5,2079.5C 1558.34,2077.8 1558.51,2076.13 1559,2074.5C 1565.77,2066.57 1572.27,2058.57 1578.5,2050.5 Z"/></g>
<g><path style="opacity:0.961" fill="#fefefe" d="M 2705.5,2108.5 C 2718.75,2108.18 2731.91,2108.51 2745,2109.5C 2745.83,2131.74 2745.66,2153.91 2744.5,2176C 2731.26,2176.82 2718.09,2176.66 2705,2175.5C 2704.18,2153.09 2704.35,2130.76 2705.5,2108.5 Z"/></g>
<g><path style="opacity:0.927" fill="#fdfdfd" d="M 2583.5,3650.5 C 2588.77,3651.23 2593.77,3652.73 2598.5,3655C 2624.65,3672.47 2635.81,3696.97 2632,3728.5C 2630.73,3732.64 2628.9,3736.48 2626.5,3740C 2622.05,3740.22 2620.89,3738.39 2623,3734.5C 2626.47,3704.27 2616.3,3679.77 2592.5,3661C 2589.15,3659.07 2585.65,3657.57 2582,3656.5C 2581.26,3654.13 2581.76,3652.13 2583.5,3650.5 Z"/></g>
<g><path style="opacity:0.926" fill="#fefefe" d="M 1776.5,3654.5 C 1787.24,3659.78 1798.24,3664.61 1809.5,3669C 1825.58,3680.95 1828.24,3695.45 1817.5,3712.5C 1806.47,3722.84 1794.14,3724.67 1780.5,3718C 1772.51,3713.58 1764.18,3709.92 1755.5,3707C 1754.62,3705.64 1754.29,3704.14 1754.5,3702.5C 1757.42,3703.29 1760.25,3703.29 1763,3702.5C 1767.51,3693.99 1771.85,3685.32 1776,3676.5C 1777.9,3672.13 1779.4,3667.63 1780.5,3663C 1780,3661 1778.83,3659.5 1777,3658.5C 1776.51,3657.21 1776.34,3655.87 1776.5,3654.5 Z M 1794.5,3667.5 C 1809.1,3672.77 1813.6,3682.77 1808,3697.5C 1805.97,3705.09 1801.47,3710.59 1794.5,3714C 1788.4,3715.35 1782.9,3714.18 1778,3710.5C 1777.33,3707.83 1777.33,3705.17 1778,3702.5C 1783.8,3690.93 1789.3,3679.27 1794.5,3667.5 Z"/></g>
<g><path style="opacity:0.923" fill="#fdfdfd" d="M 2567.5,3673.5 C 2580.17,3673.84 2584,3679.84 2579,3691.5C 2577.59,3692.79 2576.09,3693.95 2574.5,3695C 2575.03,3695.69 2575.69,3696.19 2576.5,3696.5C 2583.39,3694.87 2588.56,3697.2 2592,3703.5C 2593.38,3713.92 2589.88,3722.42 2581.5,3729C 2573.68,3734.47 2565.35,3735.47 2556.5,3732C 2553.74,3729.01 2552.9,3725.51 2554,3721.5C 2557.18,3717.94 2560.68,3717.61 2564.5,3720.5C 2565.73,3722.93 2566.73,3725.43 2567.5,3728C 2571.26,3729.18 2574.09,3728.01 2576,3724.5C 2578.07,3717.12 2577.9,3709.78 2575.5,3702.5C 2574.21,3701.59 2572.88,3701.76 2571.5,3703C 2569.64,3706.36 2566.97,3708.86 2563.5,3710.5C 2562.28,3710.11 2561.61,3709.28 2561.5,3708C 2565.21,3703.09 2567.71,3697.59 2569,3691.5C 2569.93,3686.02 2567.76,3682.35 2562.5,3680.5C 2558.28,3683.1 2555.94,3686.93 2555.5,3692C 2555.92,3694.09 2557.09,3695.59 2559,3696.5C 2560.38,3694.25 2561.88,3692.08 2563.5,3690C 2565.47,3689.46 2566.47,3690.3 2566.5,3692.5C 2565.86,3699.83 2562.03,3704.16 2555,3705.5C 2549.25,3704.41 2546.41,3700.91 2546.5,3695C 2549,3683.33 2556,3676.17 2567.5,3673.5 Z"/></g>
<g><path style="opacity:0.916" fill="#fdfdfd" d="M 1837.5,3680.5 C 1851.33,3684.74 1864.99,3689.57 1878.5,3695C 1880.03,3699.81 1879.7,3704.48 1877.5,3709C 1876.55,3709.48 1875.55,3709.65 1874.5,3709.5C 1872.81,3698.98 1866.64,3692.98 1856,3691.5C 1855,3692.5 1854,3693.5 1853,3694.5C 1852.45,3697.7 1851.45,3700.7 1850,3703.5C 1848.27,3709.65 1850.43,3712.15 1856.5,3711C 1859.32,3709.18 1861.82,3707.01 1864,3704.5C 1864.64,3705.61 1865.14,3706.78 1865.5,3708C 1863.1,3714.08 1860.94,3720.25 1859,3726.5C 1858,3727.83 1857,3727.83 1856,3726.5C 1855.59,3723.77 1854.92,3721.1 1854,3718.5C 1851.71,3717.53 1849.71,3716.19 1848,3714.5C 1846.62,3715.55 1845.62,3716.88 1845,3718.5C 1843.42,3723.34 1841.92,3728.17 1840.5,3733C 1844.93,3737.63 1850.43,3739.8 1857,3739.5C 1862.33,3738.75 1867.16,3736.75 1871.5,3733.5C 1871.91,3738.87 1869.91,3743.37 1865.5,3747C 1863.17,3747.67 1860.83,3747.67 1858.5,3747C 1846.23,3741.69 1833.56,3737.35 1820.5,3734C 1819.62,3732.64 1819.29,3731.14 1819.5,3729.5C 1821.4,3729.43 1823.23,3729.77 1825,3730.5C 1826.9,3728.37 1828.57,3726.04 1830,3723.5C 1834.38,3711.81 1838.21,3699.98 1841.5,3688C 1839.81,3686.31 1838.14,3684.64 1836.5,3683C 1836.74,3682.1 1837.08,3681.26 1837.5,3680.5 Z"/></g>
<g><path style="opacity:0.936" fill="#fdfdfd" d="M 2526.5,3688.5 C 2528.38,3689.08 2529.38,3690.41 2529.5,3692.5C 2525.74,3709.54 2526.07,3726.54 2530.5,3743.5C 2530.21,3748.45 2527.55,3751.12 2522.5,3751.5C 2520.63,3751.61 2519.13,3750.94 2518,3749.5C 2516.45,3746.7 2515.62,3743.7 2515.5,3740.5C 2516.8,3728.6 2519.13,3716.94 2522.5,3705.5C 2520.93,3704.37 2519.26,3704.2 2517.5,3705C 2510.99,3706.88 2504.66,3709.21 2498.5,3712C 2497.06,3715.1 2495.23,3717.93 2493,3720.5C 2492.05,3720.09 2491.39,3719.43 2491,3718.5C 2490.06,3711.51 2489.73,3704.51 2490,3697.5C 2492.16,3696.8 2494.33,3697.14 2496.5,3698.5C 2506.94,3696.13 2516.94,3692.8 2526.5,3688.5 Z"/></g>
<g><path style="opacity:0.92" fill="#fefefe" d="M 1889.5,3696.5 C 1901.54,3699.81 1913.54,3703.31 1925.5,3707C 1932.84,3712.17 1935,3719 1932,3727.5C 1931.17,3729.67 1929.67,3731.17 1927.5,3732C 1918.82,3735 1910.16,3734.84 1901.5,3731.5C 1898.11,3737.73 1896.61,3744.4 1897,3751.5C 1898.67,3752.5 1900.33,3753.5 1902,3754.5C 1902.48,3755.45 1902.65,3756.45 1902.5,3757.5C 1893.69,3754.93 1884.69,3753.27 1875.5,3752.5C 1875.35,3751.45 1875.52,3750.45 1876,3749.5C 1879.6,3748.7 1882.27,3746.7 1884,3743.5C 1888.06,3730.34 1891.06,3717.01 1893,3703.5C 1889.96,3702.2 1888.79,3699.86 1889.5,3696.5 Z M 1907.5,3706.5 C 1918.3,3707.1 1921.8,3712.44 1918,3722.5C 1914.33,3727.67 1909.5,3729.33 1903.5,3727.5C 1902.75,3720.15 1904.08,3713.15 1907.5,3706.5 Z"/></g>
<g><path style="opacity:0.926" fill="#fefefe" d="M 2451.5,3708.5 C 2467.38,3705.85 2477.54,3712.18 2482,3727.5C 2485.75,3746.79 2478.58,3759.96 2460.5,3767C 2455.83,3767.67 2451.17,3767.67 2446.5,3767C 2439.41,3762.94 2438.74,3757.94 2444.5,3752C 2450.95,3751.42 2454.95,3754.42 2456.5,3761C 2462.66,3761.03 2466.49,3757.86 2468,3751.5C 2468.67,3748.17 2468.67,3744.83 2468,3741.5C 2457.37,3749.75 2447.2,3749.08 2437.5,3739.5C 2431.38,3724.72 2436.04,3714.39 2451.5,3708.5 Z M 2452.5,3713.5 C 2458.84,3712.76 2463.01,3715.42 2465,3721.5C 2466.49,3726.41 2466.83,3731.41 2466,3736.5C 2458.26,3742.98 2452.93,3741.31 2450,3731.5C 2449.37,3727.46 2448.87,3723.63 2448.5,3720C 2449.23,3717.44 2450.57,3715.27 2452.5,3713.5 Z"/></g>
<g><path style="opacity:0.926" fill="#fdfdfd" d="M 1939.5,3710.5 C 1947.09,3711.27 1954.59,3712.61 1962,3714.5C 1964.37,3712.85 1966.2,3713.35 1967.5,3716C 1964.72,3717.83 1961.89,3719.66 1959,3721.5C 1954.75,3733.16 1952.75,3745.16 1953,3757.5C 1956.13,3763.4 1961.13,3766.4 1968,3766.5C 1975.19,3764.99 1979.02,3760.83 1979.5,3754C 1981.75,3746.75 1983.75,3739.42 1985.5,3732C 1984.73,3729.59 1984.23,3727.09 1984,3724.5C 1982.85,3723.26 1981.51,3722.26 1980,3721.5C 1979.52,3720.55 1979.35,3719.55 1979.5,3718.5C 1986.14,3719.66 1992.81,3720.66 1999.5,3721.5C 1999.5,3722.5 1999.5,3723.5 1999.5,3724.5C 1996.38,3724.64 1993.88,3725.98 1992,3728.5C 1989.41,3741.05 1986.08,3753.39 1982,3765.5C 1974.72,3772.52 1966.22,3774.35 1956.5,3771C 1950.51,3769.59 1945.35,3766.76 1941,3762.5C 1937.98,3756.7 1937.81,3750.86 1940.5,3745C 1940.17,3744.67 1939.83,3744.33 1939.5,3744C 1942.68,3735.11 1944.18,3725.94 1944,3716.5C 1941.13,3715.47 1939.63,3713.47 1939.5,3710.5 Z"/></g>
<g><path style="opacity:0.933" fill="#fdfdfd" d="M 2361.5,3711.5 C 2363.43,3711.23 2365.1,3711.73 2366.5,3713C 2354.2,3736.03 2353.03,3759.53 2363,3783.5C 2366.42,3791.59 2371.42,3798.59 2378,3804.5C 2378.4,3809.65 2376.23,3810.81 2371.5,3808C 2345.11,3784.11 2338.95,3755.61 2353,3722.5C 2355.39,3718.46 2358.23,3714.79 2361.5,3711.5 Z"/></g>
<g><path style="opacity:0.934" fill="#fdfdfd" d="M 2404.5,3718.5 C 2405.5,3718.41 2406.33,3718.75 2407,3719.5C 2410.01,3735.18 2413.01,3750.85 2416,3766.5C 2418.1,3769.42 2420.77,3770.09 2424,3768.5C 2426.98,3771.32 2426.15,3773.15 2421.5,3774C 2413.52,3774.76 2405.68,3776.26 2398,3778.5C 2396.34,3778.61 2395.17,3777.95 2394.5,3776.5C 2396.79,3774.56 2399.29,3772.9 2402,3771.5C 2401.65,3760.42 2400.32,3749.42 2398,3738.5C 2396.71,3731.59 2392.54,3728.76 2385.5,3730C 2385.04,3729.59 2384.71,3729.09 2384.5,3728.5C 2391.48,3725.73 2398.15,3722.4 2404.5,3718.5 Z"/></g>
<g><path style="opacity:0.938" fill="#fdfdfd" d="M 2004.5,3721.5 C 2011.89,3724.21 2019.56,3725.71 2027.5,3726C 2029.62,3726.1 2031.29,3726.93 2032.5,3728.5C 2029.58,3729.31 2026.75,3730.31 2024,3731.5C 2020.21,3745.84 2018.21,3760.17 2018,3774.5C 2020.61,3776.4 2022.28,3778.73 2023,3781.5C 2022.59,3781.96 2022.09,3782.29 2021.5,3782.5C 2013.81,3779.41 2005.81,3777.91 1997.5,3778C 1996.66,3776.99 1996.33,3775.82 1996.5,3774.5C 1998.83,3774.34 2000.99,3773.67 2003,3772.5C 2006.64,3758.04 2008.64,3743.37 2009,3728.5C 2004.68,3727.72 2003.18,3725.38 2004.5,3721.5 Z"/></g>
<g><path style="opacity:0.923" fill="#fdfdfd" d="M 2047.5,3728.5 C 2053.74,3728.06 2059.74,3729.06 2065.5,3731.5C 2067.19,3731.24 2068.69,3730.57 2070,3729.5C 2072.42,3734.57 2073.09,3739.9 2072,3745.5C 2070.45,3748 2068.78,3748 2067,3745.5C 2064.22,3734.7 2057.72,3731.2 2047.5,3735C 2044.63,3739.22 2045.3,3742.89 2049.5,3746C 2056.53,3748.6 2063.03,3752.1 2069,3756.5C 2076.19,3769.51 2073.02,3779.01 2059.5,3785C 2051.4,3785.81 2043.9,3784.64 2037,3781.5C 2035.39,3782.1 2034.06,3783.1 2033,3784.5C 2031.54,3777.34 2031.04,3770.01 2031.5,3762.5C 2032.68,3762.28 2033.68,3762.61 2034.5,3763.5C 2037.16,3769.98 2041.16,3775.48 2046.5,3780C 2056.48,3783.34 2061.31,3779.84 2061,3769.5C 2054.69,3764.54 2047.86,3760.37 2040.5,3757C 2032.67,3748.4 2032.67,3739.9 2040.5,3731.5C 2042.89,3730.34 2045.22,3729.34 2047.5,3728.5 Z"/></g>
<g><path style="opacity:0.92" fill="#fdfdfd" d="M 2141.5,3731.5 C 2143.35,3731.22 2144.68,3731.89 2145.5,3733.5C 2139.09,3745.37 2129.09,3750.37 2115.5,3748.5C 2114.87,3751.49 2114.7,3754.49 2115,3757.5C 2122.93,3753.35 2130.76,3753.52 2138.5,3758C 2147.23,3770.2 2145.23,3780.53 2132.5,3789C 2122.53,3793.63 2112.53,3793.63 2102.5,3789C 2096.42,3779.03 2099.08,3774.03 2110.5,3774C 2111,3774.5 2111.5,3775 2112,3775.5C 2110.37,3788.92 2114.71,3791.59 2125,3783.5C 2128.09,3777.15 2129.09,3770.48 2128,3763.5C 2124.63,3760.11 2120.79,3759.61 2116.5,3762C 2114.3,3765.03 2111.96,3767.86 2109.5,3770.5C 2107.73,3770.57 2106.73,3769.73 2106.5,3768C 2109.38,3757.95 2111.88,3747.78 2114,3737.5C 2114.39,3736.57 2115.05,3735.91 2116,3735.5C 2125.46,3739.06 2133.96,3737.73 2141.5,3731.5 Z"/></g>
<g><path style="opacity:0.922" fill="#fdfdfd" d="M 2292.5,3733.5 C 2296.85,3733.33 2301.18,3733.5 2305.5,3734C 2312.5,3736.65 2314.66,3741.49 2312,3748.5C 2309.5,3751 2307,3753.5 2304.5,3756C 2317.16,3760.99 2319.66,3769.49 2312,3781.5C 2304.19,3789.5 2294.69,3792.67 2283.5,3791C 2273.32,3788.34 2270.99,3782.67 2276.5,3774C 2285.74,3772.27 2289.24,3776.1 2287,3785.5C 2290.04,3786.97 2292.87,3786.63 2295.5,3784.5C 2297.61,3780.62 2299.44,3776.62 2301,3772.5C 2301.79,3768.91 2301.62,3765.41 2300.5,3762C 2297.12,3761.69 2294.45,3763.02 2292.5,3766C 2290.65,3767.13 2288.65,3767.63 2286.5,3767.5C 2286.34,3766.13 2286.51,3764.79 2287,3763.5C 2290.67,3759.83 2294.33,3756.17 2298,3752.5C 2299.4,3748.93 2299.74,3745.26 2299,3741.5C 2298.1,3739.63 2296.6,3738.63 2294.5,3738.5C 2287.96,3739.91 2285.13,3743.91 2286,3750.5C 2286.41,3750.96 2286.91,3751.29 2287.5,3751.5C 2289.5,3750.17 2291.5,3748.83 2293.5,3747.5C 2294.88,3748 2295.55,3749 2295.5,3750.5C 2291.82,3759.77 2285.65,3762.1 2277,3757.5C 2274.01,3750.17 2275.51,3744.01 2281.5,3739C 2285.19,3737.06 2288.86,3735.22 2292.5,3733.5 Z"/></g>
<g><path style="opacity:0.939" fill="#fdfdfd" d="M 2164.5,3734.5 C 2166.83,3736.3 2169.49,3737.47 2172.5,3738C 2181.74,3738.18 2190.91,3738.68 2200,3739.5C 2201.68,3738.4 2203.18,3738.73 2204.5,3740.5C 2193.99,3756.48 2188.83,3774.15 2189,3793.5C 2185.88,3797.65 2182.05,3798.48 2177.5,3796C 2175.85,3794.53 2174.85,3792.7 2174.5,3790.5C 2175.39,3780.39 2179.23,3771.73 2186,3764.5C 2188.28,3759.8 2190.45,3755.14 2192.5,3750.5C 2184.6,3750.52 2176.6,3750.69 2168.5,3751C 2166.46,3752.71 2164.79,3754.71 2163.5,3757C 2161.87,3757.49 2160.2,3757.66 2158.5,3757.5C 2159.55,3749.5 2161.55,3741.84 2164.5,3734.5 Z"/></g>
<g><path style="opacity:0.92" fill="#fdfdfd" d="M 2235.5,3736.5 C 2240.91,3736.23 2246.25,3736.73 2251.5,3738C 2257.04,3742.39 2257.87,3747.56 2254,3753.5C 2251.8,3756.04 2249.3,3758.21 2246.5,3760C 2249.36,3761.04 2252.19,3762.21 2255,3763.5C 2261.82,3776.07 2258.66,3785.57 2245.5,3792C 2236.73,3796.32 2228.07,3795.99 2219.5,3791C 2211.8,3783.11 2213.14,3778.11 2223.5,3776C 2226.59,3777.42 2228.59,3779.76 2229.5,3783C 2227.96,3784.6 2227.46,3786.43 2228,3788.5C 2230.4,3789.6 2232.9,3789.77 2235.5,3789C 2242.68,3781.98 2245.01,3773.82 2242.5,3764.5C 2238.55,3767.64 2234.21,3769.97 2229.5,3771.5C 2229.37,3769.35 2229.87,3767.35 2231,3765.5C 2237.72,3761.63 2241.89,3755.96 2243.5,3748.5C 2243.06,3742.21 2240.06,3740.37 2234.5,3743C 2230.53,3745.78 2228.86,3749.62 2229.5,3754.5C 2232.64,3754.2 2234.81,3752.53 2236,3749.5C 2237.3,3750.56 2238.46,3751.73 2239.5,3753C 2236.75,3760.77 2231.42,3763.77 2223.5,3762C 2219.14,3759.77 2217.64,3756.27 2219,3751.5C 2219.64,3748.89 2220.81,3746.55 2222.5,3744.5C 2226.49,3741.08 2230.82,3738.42 2235.5,3736.5 Z"/></g>
</svg>
